ISO-10303-21;
HEADER;
FILE_DESCRIPTION(('FreeCAD Model'),'2;1');
FILE_NAME('Open CASCADE Shape Model','2025-07-22T21:19:51',('Author'),(
    ''),'Open CASCADE STEP processor 7.6','FreeCAD','Unknown');
FILE_SCHEMA(('AUTOMOTIVE_DESIGN { 1 0 10303 214 1 1 1 1 }'));
ENDSEC;
DATA;
#1 = APPLICATION_PROTOCOL_DEFINITION('international standard',
  'automotive_design',2000,#2);
#2 = APPLICATION_CONTEXT(
  'core data for automotive mechanical design processes');
#3 = SHAPE_DEFINITION_REPRESENTATION(#4,#10);
#4 = PRODUCT_DEFINITION_SHAPE('','',#5);
#5 = PRODUCT_DEFINITION('design','',#6,#9);
#6 = PRODUCT_DEFINITION_FORMATION('','',#7);
#7 = PRODUCT('Body002','Body002','',(#8));
#8 = PRODUCT_CONTEXT('',#2,'mechanical');
#9 = PRODUCT_DEFINITION_CONTEXT('part definition',#2,'design');
#10 = ADVANCED_BREP_SHAPE_REPRESENTATION('',(#11,#15),#590);
#11 = AXIS2_PLACEMENT_3D('',#12,#13,#14);
#12 = CARTESIAN_POINT('',(0.,0.,0.));
#13 = DIRECTION('',(0.,0.,1.));
#14 = DIRECTION('',(1.,0.,-0.));
#15 = MANIFOLD_SOLID_BREP('',#16);
#16 = CLOSED_SHELL('',(#17,#57,#178,#203,#238,#262,#287,#311,#335,#360,
    #385,#409,#433,#451,#476,#496,#521,#541,#566));
#17 = ADVANCED_FACE('',(#18),#52,.T.);
#18 = FACE_BOUND('',#19,.T.);
#19 = EDGE_LOOP('',(#20,#30,#38,#46));
#20 = ORIENTED_EDGE('',*,*,#21,.F.);
#21 = EDGE_CURVE('',#22,#24,#26,.T.);
#22 = VERTEX_POINT('',#23);
#23 = CARTESIAN_POINT('',(0.875,5.935855035322,0.));
#24 = VERTEX_POINT('',#25);
#25 = CARTESIAN_POINT('',(0.875,9.6,0.));
#26 = LINE('',#27,#28);
#27 = CARTESIAN_POINT('',(0.875,5.935855035322,0.));
#28 = VECTOR('',#29,1.);
#29 = DIRECTION('',(0.,1.,0.));
#30 = ORIENTED_EDGE('',*,*,#31,.T.);
#31 = EDGE_CURVE('',#22,#32,#34,.T.);
#32 = VERTEX_POINT('',#33);
#33 = CARTESIAN_POINT('',(0.875,5.935855035322,-1.5));
#34 = LINE('',#35,#36);
#35 = CARTESIAN_POINT('',(0.875,5.935855035322,0.));
#36 = VECTOR('',#37,1.);
#37 = DIRECTION('',(-0.,-0.,-1.));
#38 = ORIENTED_EDGE('',*,*,#39,.T.);
#39 = EDGE_CURVE('',#32,#40,#42,.T.);
#40 = VERTEX_POINT('',#41);
#41 = CARTESIAN_POINT('',(0.875,9.6,-1.5));
#42 = LINE('',#43,#44);
#43 = CARTESIAN_POINT('',(0.875,5.935855035322,-1.5));
#44 = VECTOR('',#45,1.);
#45 = DIRECTION('',(0.,1.,0.));
#46 = ORIENTED_EDGE('',*,*,#47,.F.);
#47 = EDGE_CURVE('',#24,#40,#48,.T.);
#48 = LINE('',#49,#50);
#49 = CARTESIAN_POINT('',(0.875,9.6,0.));
#50 = VECTOR('',#51,1.);
#51 = DIRECTION('',(-0.,-0.,-1.));
#52 = PLANE('',#53);
#53 = AXIS2_PLACEMENT_3D('',#54,#55,#56);
#54 = CARTESIAN_POINT('',(0.875,5.935855035322,0.));
#55 = DIRECTION('',(1.,0.,0.));
#56 = DIRECTION('',(0.,1.,0.));
#57 = ADVANCED_FACE('',(#58,#162),#173,.T.);
#58 = FACE_BOUND('',#59,.T.);
#59 = EDGE_LOOP('',(#60,#61,#70,#78,#87,#95,#104,#112,#121,#129,#138,
    #146,#155));
#60 = ORIENTED_EDGE('',*,*,#21,.T.);
#61 = ORIENTED_EDGE('',*,*,#62,.T.);
#62 = EDGE_CURVE('',#24,#63,#65,.T.);
#63 = VERTEX_POINT('',#64);
#64 = CARTESIAN_POINT('',(0.475,10.,0.));
#65 = CIRCLE('',#66,0.4);
#66 = AXIS2_PLACEMENT_3D('',#67,#68,#69);
#67 = CARTESIAN_POINT('',(0.475,9.6,0.));
#68 = DIRECTION('',(0.,-0.,1.));
#69 = DIRECTION('',(0.,1.,0.));
#70 = ORIENTED_EDGE('',*,*,#71,.T.);
#71 = EDGE_CURVE('',#63,#72,#74,.T.);
#72 = VERTEX_POINT('',#73);
#73 = CARTESIAN_POINT('',(-0.475,10.,0.));
#74 = LINE('',#75,#76);
#75 = CARTESIAN_POINT('',(0.875,10.,0.));
#76 = VECTOR('',#77,1.);
#77 = DIRECTION('',(-1.,0.,0.));
#78 = ORIENTED_EDGE('',*,*,#79,.T.);
#79 = EDGE_CURVE('',#72,#80,#82,.T.);
#80 = VERTEX_POINT('',#81);
#81 = CARTESIAN_POINT('',(-0.875,9.6,0.));
#82 = CIRCLE('',#83,0.4);
#83 = AXIS2_PLACEMENT_3D('',#84,#85,#86);
#84 = CARTESIAN_POINT('',(-0.475,9.6,0.));
#85 = DIRECTION('',(0.,-0.,1.));
#86 = DIRECTION('',(0.,1.,0.));
#87 = ORIENTED_EDGE('',*,*,#88,.T.);
#88 = EDGE_CURVE('',#80,#89,#91,.T.);
#89 = VERTEX_POINT('',#90);
#90 = CARTESIAN_POINT('',(-0.875,5.935855035322,0.));
#91 = LINE('',#92,#93);
#92 = CARTESIAN_POINT('',(-0.875,10.,0.));
#93 = VECTOR('',#94,1.);
#94 = DIRECTION('',(0.,-1.,0.));
#95 = ORIENTED_EDGE('',*,*,#96,.T.);
#96 = EDGE_CURVE('',#89,#97,#99,.T.);
#97 = VERTEX_POINT('',#98);
#98 = CARTESIAN_POINT('',(-0.875,-5.935855035292,0.));
#99 = CIRCLE('',#100,6.);
#100 = AXIS2_PLACEMENT_3D('',#101,#102,#103);
#101 = CARTESIAN_POINT('',(0.,0.,0.));
#102 = DIRECTION('',(0.,0.,1.));
#103 = DIRECTION('',(1.,0.,0.));
#104 = ORIENTED_EDGE('',*,*,#105,.T.);
#105 = EDGE_CURVE('',#97,#106,#108,.T.);
#106 = VERTEX_POINT('',#107);
#107 = CARTESIAN_POINT('',(-0.651517962462,-64.60152375602,0.));
#108 = LINE('',#109,#110);
#109 = CARTESIAN_POINT('',(-0.875,-5.935855035292,0.));
#110 = VECTOR('',#111,1.);
#111 = DIRECTION('',(3.80939007227E-03,-0.999992744247,0.));
#112 = ORIENTED_EDGE('',*,*,#113,.T.);
#113 = EDGE_CURVE('',#106,#114,#116,.T.);
#114 = VERTEX_POINT('',#115);
#115 = CARTESIAN_POINT('',(-0.251520864763,-65.,0.));
#116 = CIRCLE('',#117,0.4);
#117 = AXIS2_PLACEMENT_3D('',#118,#119,#120);
#118 = CARTESIAN_POINT('',(-0.251520864763,-64.6,0.));
#119 = DIRECTION('',(0.,-0.,1.));
#120 = DIRECTION('',(0.,1.,0.));
#121 = ORIENTED_EDGE('',*,*,#122,.T.);
#122 = EDGE_CURVE('',#114,#123,#125,.T.);
#123 = VERTEX_POINT('',#124);
#124 = CARTESIAN_POINT('',(0.251520864763,-65.,0.));
#125 = LINE('',#126,#127);
#126 = CARTESIAN_POINT('',(-0.65,-65.,0.));
#127 = VECTOR('',#128,1.);
#128 = DIRECTION('',(1.,0.,0.));
#129 = ORIENTED_EDGE('',*,*,#130,.T.);
#130 = EDGE_CURVE('',#123,#131,#133,.T.);
#131 = VERTEX_POINT('',#132);
#132 = CARTESIAN_POINT('',(0.651517962462,-64.60152375602,0.));
#133 = CIRCLE('',#134,0.4);
#134 = AXIS2_PLACEMENT_3D('',#135,#136,#137);
#135 = CARTESIAN_POINT('',(0.251520864763,-64.6,0.));
#136 = DIRECTION('',(0.,-0.,1.));
#137 = DIRECTION('',(0.,1.,0.));
#138 = ORIENTED_EDGE('',*,*,#139,.T.);
#139 = EDGE_CURVE('',#131,#140,#142,.T.);
#140 = VERTEX_POINT('',#141);
#141 = CARTESIAN_POINT('',(0.875,-5.935855035292,0.));
#142 = LINE('',#143,#144);
#143 = CARTESIAN_POINT('',(0.65,-65.,0.));
#144 = VECTOR('',#145,1.);
#145 = DIRECTION('',(3.80939007227E-03,0.999992744247,0.));
#146 = ORIENTED_EDGE('',*,*,#147,.T.);
#147 = EDGE_CURVE('',#140,#148,#150,.T.);
#148 = VERTEX_POINT('',#149);
#149 = CARTESIAN_POINT('',(6.,0.,0.));
#150 = CIRCLE('',#151,6.);
#151 = AXIS2_PLACEMENT_3D('',#152,#153,#154);
#152 = CARTESIAN_POINT('',(0.,0.,0.));
#153 = DIRECTION('',(0.,0.,1.));
#154 = DIRECTION('',(1.,0.,0.));
#155 = ORIENTED_EDGE('',*,*,#156,.T.);
#156 = EDGE_CURVE('',#148,#22,#157,.T.);
#157 = CIRCLE('',#158,6.);
#158 = AXIS2_PLACEMENT_3D('',#159,#160,#161);
#159 = CARTESIAN_POINT('',(0.,0.,0.));
#160 = DIRECTION('',(0.,0.,1.));
#161 = DIRECTION('',(1.,0.,0.));
#162 = FACE_BOUND('',#163,.T.);
#163 = EDGE_LOOP('',(#164));
#164 = ORIENTED_EDGE('',*,*,#165,.T.);
#165 = EDGE_CURVE('',#166,#166,#168,.T.);
#166 = VERTEX_POINT('',#167);
#167 = CARTESIAN_POINT('',(4.,0.,0.));
#168 = CIRCLE('',#169,4.);
#169 = AXIS2_PLACEMENT_3D('',#170,#171,#172);
#170 = CARTESIAN_POINT('',(0.,0.,0.));
#171 = DIRECTION('',(0.,0.,-1.));
#172 = DIRECTION('',(1.,0.,0.));
#173 = PLANE('',#174);
#174 = AXIS2_PLACEMENT_3D('',#175,#176,#177);
#175 = CARTESIAN_POINT('',(3.615090594207E-02,-25.76558384301,0.));
#176 = DIRECTION('',(0.,0.,1.));
#177 = DIRECTION('',(1.,0.,0.));
#178 = ADVANCED_FACE('',(#179),#198,.T.);
#179 = FACE_BOUND('',#180,.F.);
#180 = EDGE_LOOP('',(#181,#182,#190,#197));
#181 = ORIENTED_EDGE('',*,*,#62,.T.);
#182 = ORIENTED_EDGE('',*,*,#183,.T.);
#183 = EDGE_CURVE('',#63,#184,#186,.T.);
#184 = VERTEX_POINT('',#185);
#185 = CARTESIAN_POINT('',(0.475,10.,-1.5));
#186 = LINE('',#187,#188);
#187 = CARTESIAN_POINT('',(0.475,10.,0.));
#188 = VECTOR('',#189,1.);
#189 = DIRECTION('',(-0.,-0.,-1.));
#190 = ORIENTED_EDGE('',*,*,#191,.F.);
#191 = EDGE_CURVE('',#40,#184,#192,.T.);
#192 = CIRCLE('',#193,0.4);
#193 = AXIS2_PLACEMENT_3D('',#194,#195,#196);
#194 = CARTESIAN_POINT('',(0.475,9.6,-1.5));
#195 = DIRECTION('',(0.,-0.,1.));
#196 = DIRECTION('',(0.,1.,0.));
#197 = ORIENTED_EDGE('',*,*,#47,.F.);
#198 = CYLINDRICAL_SURFACE('',#199,0.4);
#199 = AXIS2_PLACEMENT_3D('',#200,#201,#202);
#200 = CARTESIAN_POINT('',(0.475,9.6,0.));
#201 = DIRECTION('',(-0.,-0.,-1.));
#202 = DIRECTION('',(1.,0.,0.));
#203 = ADVANCED_FACE('',(#204),#233,.T.);
#204 = FACE_BOUND('',#205,.T.);
#205 = EDGE_LOOP('',(#206,#207,#215,#224,#231,#232));
#206 = ORIENTED_EDGE('',*,*,#147,.F.);
#207 = ORIENTED_EDGE('',*,*,#208,.T.);
#208 = EDGE_CURVE('',#140,#209,#211,.T.);
#209 = VERTEX_POINT('',#210);
#210 = CARTESIAN_POINT('',(0.875,-5.935855035292,-1.5));
#211 = LINE('',#212,#213);
#212 = CARTESIAN_POINT('',(0.875,-5.935855035292,0.));
#213 = VECTOR('',#214,1.);
#214 = DIRECTION('',(-0.,-0.,-1.));
#215 = ORIENTED_EDGE('',*,*,#216,.T.);
#216 = EDGE_CURVE('',#209,#217,#219,.T.);
#217 = VERTEX_POINT('',#218);
#218 = CARTESIAN_POINT('',(6.,0.,-1.5));
#219 = CIRCLE('',#220,6.);
#220 = AXIS2_PLACEMENT_3D('',#221,#222,#223);
#221 = CARTESIAN_POINT('',(0.,0.,-1.5));
#222 = DIRECTION('',(0.,0.,1.));
#223 = DIRECTION('',(1.,0.,0.));
#224 = ORIENTED_EDGE('',*,*,#225,.T.);
#225 = EDGE_CURVE('',#217,#32,#226,.T.);
#226 = CIRCLE('',#227,6.);
#227 = AXIS2_PLACEMENT_3D('',#228,#229,#230);
#228 = CARTESIAN_POINT('',(0.,0.,-1.5));
#229 = DIRECTION('',(0.,0.,1.));
#230 = DIRECTION('',(1.,0.,0.));
#231 = ORIENTED_EDGE('',*,*,#31,.F.);
#232 = ORIENTED_EDGE('',*,*,#156,.F.);
#233 = CYLINDRICAL_SURFACE('',#234,6.);
#234 = AXIS2_PLACEMENT_3D('',#235,#236,#237);
#235 = CARTESIAN_POINT('',(0.,0.,0.));
#236 = DIRECTION('',(0.,0.,1.));
#237 = DIRECTION('',(1.,0.,0.));
#238 = ADVANCED_FACE('',(#239),#257,.T.);
#239 = FACE_BOUND('',#240,.T.);
#240 = EDGE_LOOP('',(#241,#242,#243,#251));
#241 = ORIENTED_EDGE('',*,*,#71,.F.);
#242 = ORIENTED_EDGE('',*,*,#183,.T.);
#243 = ORIENTED_EDGE('',*,*,#244,.T.);
#244 = EDGE_CURVE('',#184,#245,#247,.T.);
#245 = VERTEX_POINT('',#246);
#246 = CARTESIAN_POINT('',(-0.475,10.,-1.5));
#247 = LINE('',#248,#249);
#248 = CARTESIAN_POINT('',(0.875,10.,-1.5));
#249 = VECTOR('',#250,1.);
#250 = DIRECTION('',(-1.,0.,0.));
#251 = ORIENTED_EDGE('',*,*,#252,.F.);
#252 = EDGE_CURVE('',#72,#245,#253,.T.);
#253 = LINE('',#254,#255);
#254 = CARTESIAN_POINT('',(-0.475,10.,0.));
#255 = VECTOR('',#256,1.);
#256 = DIRECTION('',(-0.,-0.,-1.));
#257 = PLANE('',#258);
#258 = AXIS2_PLACEMENT_3D('',#259,#260,#261);
#259 = CARTESIAN_POINT('',(0.875,10.,0.));
#260 = DIRECTION('',(0.,1.,0.));
#261 = DIRECTION('',(-1.,0.,0.));
#262 = ADVANCED_FACE('',(#263),#282,.T.);
#263 = FACE_BOUND('',#264,.F.);
#264 = EDGE_LOOP('',(#265,#266,#274,#281));
#265 = ORIENTED_EDGE('',*,*,#79,.T.);
#266 = ORIENTED_EDGE('',*,*,#267,.T.);
#267 = EDGE_CURVE('',#80,#268,#270,.T.);
#268 = VERTEX_POINT('',#269);
#269 = CARTESIAN_POINT('',(-0.875,9.6,-1.5));
#270 = LINE('',#271,#272);
#271 = CARTESIAN_POINT('',(-0.875,9.6,0.));
#272 = VECTOR('',#273,1.);
#273 = DIRECTION('',(-0.,-0.,-1.));
#274 = ORIENTED_EDGE('',*,*,#275,.F.);
#275 = EDGE_CURVE('',#245,#268,#276,.T.);
#276 = CIRCLE('',#277,0.4);
#277 = AXIS2_PLACEMENT_3D('',#278,#279,#280);
#278 = CARTESIAN_POINT('',(-0.475,9.6,-1.5));
#279 = DIRECTION('',(0.,-0.,1.));
#280 = DIRECTION('',(0.,1.,0.));
#281 = ORIENTED_EDGE('',*,*,#252,.F.);
#282 = CYLINDRICAL_SURFACE('',#283,0.4);
#283 = AXIS2_PLACEMENT_3D('',#284,#285,#286);
#284 = CARTESIAN_POINT('',(-0.475,9.6,0.));
#285 = DIRECTION('',(-0.,-0.,-1.));
#286 = DIRECTION('',(0.,1.,0.));
#287 = ADVANCED_FACE('',(#288),#306,.T.);
#288 = FACE_BOUND('',#289,.T.);
#289 = EDGE_LOOP('',(#290,#291,#299,#305));
#290 = ORIENTED_EDGE('',*,*,#139,.F.);
#291 = ORIENTED_EDGE('',*,*,#292,.T.);
#292 = EDGE_CURVE('',#131,#293,#295,.T.);
#293 = VERTEX_POINT('',#294);
#294 = CARTESIAN_POINT('',(0.651517962462,-64.60152375602,-1.5));
#295 = LINE('',#296,#297);
#296 = CARTESIAN_POINT('',(0.651517962462,-64.60152375602,0.));
#297 = VECTOR('',#298,1.);
#298 = DIRECTION('',(-0.,-0.,-1.));
#299 = ORIENTED_EDGE('',*,*,#300,.T.);
#300 = EDGE_CURVE('',#293,#209,#301,.T.);
#301 = LINE('',#302,#303);
#302 = CARTESIAN_POINT('',(0.65,-65.,-1.5));
#303 = VECTOR('',#304,1.);
#304 = DIRECTION('',(3.80939007227E-03,0.999992744247,0.));
#305 = ORIENTED_EDGE('',*,*,#208,.F.);
#306 = PLANE('',#307);
#307 = AXIS2_PLACEMENT_3D('',#308,#309,#310);
#308 = CARTESIAN_POINT('',(0.65,-65.,0.));
#309 = DIRECTION('',(0.999992744247,-3.80939007227E-03,0.));
#310 = DIRECTION('',(3.80939007227E-03,0.999992744247,0.));
#311 = ADVANCED_FACE('',(#312),#330,.T.);
#312 = FACE_BOUND('',#313,.T.);
#313 = EDGE_LOOP('',(#314,#315,#316,#324));
#314 = ORIENTED_EDGE('',*,*,#88,.F.);
#315 = ORIENTED_EDGE('',*,*,#267,.T.);
#316 = ORIENTED_EDGE('',*,*,#317,.T.);
#317 = EDGE_CURVE('',#268,#318,#320,.T.);
#318 = VERTEX_POINT('',#319);
#319 = CARTESIAN_POINT('',(-0.875,5.935855035322,-1.5));
#320 = LINE('',#321,#322);
#321 = CARTESIAN_POINT('',(-0.875,10.,-1.5));
#322 = VECTOR('',#323,1.);
#323 = DIRECTION('',(0.,-1.,0.));
#324 = ORIENTED_EDGE('',*,*,#325,.F.);
#325 = EDGE_CURVE('',#89,#318,#326,.T.);
#326 = LINE('',#327,#328);
#327 = CARTESIAN_POINT('',(-0.875,5.935855035322,0.));
#328 = VECTOR('',#329,1.);
#329 = DIRECTION('',(-0.,-0.,-1.));
#330 = PLANE('',#331);
#331 = AXIS2_PLACEMENT_3D('',#332,#333,#334);
#332 = CARTESIAN_POINT('',(-0.875,10.,0.));
#333 = DIRECTION('',(-1.,0.,0.));
#334 = DIRECTION('',(0.,-1.,0.));
#335 = ADVANCED_FACE('',(#336),#355,.T.);
#336 = FACE_BOUND('',#337,.F.);
#337 = EDGE_LOOP('',(#338,#339,#340,#349));
#338 = ORIENTED_EDGE('',*,*,#130,.T.);
#339 = ORIENTED_EDGE('',*,*,#292,.T.);
#340 = ORIENTED_EDGE('',*,*,#341,.F.);
#341 = EDGE_CURVE('',#342,#293,#344,.T.);
#342 = VERTEX_POINT('',#343);
#343 = CARTESIAN_POINT('',(0.251520864763,-65.,-1.5));
#344 = CIRCLE('',#345,0.4);
#345 = AXIS2_PLACEMENT_3D('',#346,#347,#348);
#346 = CARTESIAN_POINT('',(0.251520864763,-64.6,-1.5));
#347 = DIRECTION('',(0.,-0.,1.));
#348 = DIRECTION('',(0.,1.,0.));
#349 = ORIENTED_EDGE('',*,*,#350,.F.);
#350 = EDGE_CURVE('',#123,#342,#351,.T.);
#351 = LINE('',#352,#353);
#352 = CARTESIAN_POINT('',(0.251520864763,-65.,0.));
#353 = VECTOR('',#354,1.);
#354 = DIRECTION('',(-0.,-0.,-1.));
#355 = CYLINDRICAL_SURFACE('',#356,0.4);
#356 = AXIS2_PLACEMENT_3D('',#357,#358,#359);
#357 = CARTESIAN_POINT('',(0.251520864763,-64.6,0.));
#358 = DIRECTION('',(-0.,-0.,-1.));
#359 = DIRECTION('',(0.,-1.,0.));
#360 = ADVANCED_FACE('',(#361),#380,.T.);
#361 = FACE_BOUND('',#362,.T.);
#362 = EDGE_LOOP('',(#363,#364,#365,#374));
#363 = ORIENTED_EDGE('',*,*,#96,.F.);
#364 = ORIENTED_EDGE('',*,*,#325,.T.);
#365 = ORIENTED_EDGE('',*,*,#366,.T.);
#366 = EDGE_CURVE('',#318,#367,#369,.T.);
#367 = VERTEX_POINT('',#368);
#368 = CARTESIAN_POINT('',(-0.875,-5.935855035292,-1.5));
#369 = CIRCLE('',#370,6.);
#370 = AXIS2_PLACEMENT_3D('',#371,#372,#373);
#371 = CARTESIAN_POINT('',(0.,0.,-1.5));
#372 = DIRECTION('',(0.,0.,1.));
#373 = DIRECTION('',(1.,0.,0.));
#374 = ORIENTED_EDGE('',*,*,#375,.F.);
#375 = EDGE_CURVE('',#97,#367,#376,.T.);
#376 = LINE('',#377,#378);
#377 = CARTESIAN_POINT('',(-0.875,-5.935855035292,0.));
#378 = VECTOR('',#379,1.);
#379 = DIRECTION('',(-0.,-0.,-1.));
#380 = CYLINDRICAL_SURFACE('',#381,6.);
#381 = AXIS2_PLACEMENT_3D('',#382,#383,#384);
#382 = CARTESIAN_POINT('',(0.,0.,0.));
#383 = DIRECTION('',(0.,0.,1.));
#384 = DIRECTION('',(1.,0.,0.));
#385 = ADVANCED_FACE('',(#386),#404,.T.);
#386 = FACE_BOUND('',#387,.T.);
#387 = EDGE_LOOP('',(#388,#389,#397,#403));
#388 = ORIENTED_EDGE('',*,*,#122,.F.);
#389 = ORIENTED_EDGE('',*,*,#390,.T.);
#390 = EDGE_CURVE('',#114,#391,#393,.T.);
#391 = VERTEX_POINT('',#392);
#392 = CARTESIAN_POINT('',(-0.251520864763,-65.,-1.5));
#393 = LINE('',#394,#395);
#394 = CARTESIAN_POINT('',(-0.251520864763,-65.,0.));
#395 = VECTOR('',#396,1.);
#396 = DIRECTION('',(-0.,-0.,-1.));
#397 = ORIENTED_EDGE('',*,*,#398,.T.);
#398 = EDGE_CURVE('',#391,#342,#399,.T.);
#399 = LINE('',#400,#401);
#400 = CARTESIAN_POINT('',(-0.65,-65.,-1.5));
#401 = VECTOR('',#402,1.);
#402 = DIRECTION('',(1.,0.,0.));
#403 = ORIENTED_EDGE('',*,*,#350,.F.);
#404 = PLANE('',#405);
#405 = AXIS2_PLACEMENT_3D('',#406,#407,#408);
#406 = CARTESIAN_POINT('',(-0.65,-65.,0.));
#407 = DIRECTION('',(0.,-1.,0.));
#408 = DIRECTION('',(1.,0.,0.));
#409 = ADVANCED_FACE('',(#410),#428,.T.);
#410 = FACE_BOUND('',#411,.T.);
#411 = EDGE_LOOP('',(#412,#413,#414,#422));
#412 = ORIENTED_EDGE('',*,*,#105,.F.);
#413 = ORIENTED_EDGE('',*,*,#375,.T.);
#414 = ORIENTED_EDGE('',*,*,#415,.T.);
#415 = EDGE_CURVE('',#367,#416,#418,.T.);
#416 = VERTEX_POINT('',#417);
#417 = CARTESIAN_POINT('',(-0.651517962462,-64.60152375602,-1.5));
#418 = LINE('',#419,#420);
#419 = CARTESIAN_POINT('',(-0.875,-5.935855035292,-1.5));
#420 = VECTOR('',#421,1.);
#421 = DIRECTION('',(3.80939007227E-03,-0.999992744247,0.));
#422 = ORIENTED_EDGE('',*,*,#423,.F.);
#423 = EDGE_CURVE('',#106,#416,#424,.T.);
#424 = LINE('',#425,#426);
#425 = CARTESIAN_POINT('',(-0.651517962462,-64.60152375602,0.));
#426 = VECTOR('',#427,1.);
#427 = DIRECTION('',(-0.,-0.,-1.));
#428 = PLANE('',#429);
#429 = AXIS2_PLACEMENT_3D('',#430,#431,#432);
#430 = CARTESIAN_POINT('',(-0.875,-5.935855035292,0.));
#431 = DIRECTION('',(-0.999992744247,-3.80939007227E-03,0.));
#432 = DIRECTION('',(3.80939007227E-03,-0.999992744247,0.));
#433 = ADVANCED_FACE('',(#434),#446,.T.);
#434 = FACE_BOUND('',#435,.F.);
#435 = EDGE_LOOP('',(#436,#437,#438,#445));
#436 = ORIENTED_EDGE('',*,*,#113,.T.);
#437 = ORIENTED_EDGE('',*,*,#390,.T.);
#438 = ORIENTED_EDGE('',*,*,#439,.F.);
#439 = EDGE_CURVE('',#416,#391,#440,.T.);
#440 = CIRCLE('',#441,0.4);
#441 = AXIS2_PLACEMENT_3D('',#442,#443,#444);
#442 = CARTESIAN_POINT('',(-0.251520864763,-64.6,-1.5));
#443 = DIRECTION('',(0.,-0.,1.));
#444 = DIRECTION('',(0.,1.,0.));
#445 = ORIENTED_EDGE('',*,*,#423,.F.);
#446 = CYLINDRICAL_SURFACE('',#447,0.4);
#447 = AXIS2_PLACEMENT_3D('',#448,#449,#450);
#448 = CARTESIAN_POINT('',(-0.251520864763,-64.6,0.));
#449 = DIRECTION('',(-0.,-0.,-1.));
#450 = DIRECTION('',(-0.999992744247,-3.80939007227E-03,0.));
#451 = ADVANCED_FACE('',(#452),#471,.T.);
#452 = FACE_BOUND('',#453,.T.);
#453 = EDGE_LOOP('',(#454,#455,#463,#470));
#454 = ORIENTED_EDGE('',*,*,#165,.F.);
#455 = ORIENTED_EDGE('',*,*,#456,.T.);
#456 = EDGE_CURVE('',#166,#457,#459,.T.);
#457 = VERTEX_POINT('',#458);
#458 = CARTESIAN_POINT('',(4.,0.,1.5));
#459 = LINE('',#460,#461);
#460 = CARTESIAN_POINT('',(4.,0.,-1.5));
#461 = VECTOR('',#462,1.);
#462 = DIRECTION('',(0.,0.,1.));
#463 = ORIENTED_EDGE('',*,*,#464,.T.);
#464 = EDGE_CURVE('',#457,#457,#465,.T.);
#465 = CIRCLE('',#466,4.);
#466 = AXIS2_PLACEMENT_3D('',#467,#468,#469);
#467 = CARTESIAN_POINT('',(0.,0.,1.5));
#468 = DIRECTION('',(0.,0.,-1.));
#469 = DIRECTION('',(1.,0.,0.));
#470 = ORIENTED_EDGE('',*,*,#456,.F.);
#471 = CYLINDRICAL_SURFACE('',#472,4.);
#472 = AXIS2_PLACEMENT_3D('',#473,#474,#475);
#473 = CARTESIAN_POINT('',(0.,0.,-1.5));
#474 = DIRECTION('',(0.,0.,-1.));
#475 = DIRECTION('',(1.,0.,0.));
#476 = ADVANCED_FACE('',(#477,#480),#491,.T.);
#477 = FACE_BOUND('',#478,.F.);
#478 = EDGE_LOOP('',(#479));
#479 = ORIENTED_EDGE('',*,*,#464,.T.);
#480 = FACE_BOUND('',#481,.T.);
#481 = EDGE_LOOP('',(#482));
#482 = ORIENTED_EDGE('',*,*,#483,.T.);
#483 = EDGE_CURVE('',#484,#484,#486,.T.);
#484 = VERTEX_POINT('',#485);
#485 = CARTESIAN_POINT('',(2.5,0.,1.5));
#486 = CIRCLE('',#487,2.5);
#487 = AXIS2_PLACEMENT_3D('',#488,#489,#490);
#488 = CARTESIAN_POINT('',(0.,0.,1.5));
#489 = DIRECTION('',(0.,0.,-1.));
#490 = DIRECTION('',(1.,0.,0.));
#491 = PLANE('',#492);
#492 = AXIS2_PLACEMENT_3D('',#493,#494,#495);
#493 = CARTESIAN_POINT('',(-2.103754050061E-16,-2.763116075364E-16,1.5)
  );
#494 = DIRECTION('',(3.302400440486E-33,-3.716261539723E-33,1.));
#495 = DIRECTION('',(0.,1.,3.716261539723E-33));
#496 = ADVANCED_FACE('',(#497),#516,.F.);
#497 = FACE_BOUND('',#498,.F.);
#498 = EDGE_LOOP('',(#499,#508,#514,#515));
#499 = ORIENTED_EDGE('',*,*,#500,.F.);
#500 = EDGE_CURVE('',#501,#501,#503,.T.);
#501 = VERTEX_POINT('',#502);
#502 = CARTESIAN_POINT('',(2.5,0.,-0.5));
#503 = CIRCLE('',#504,2.5);
#504 = AXIS2_PLACEMENT_3D('',#505,#506,#507);
#505 = CARTESIAN_POINT('',(0.,0.,-0.5));
#506 = DIRECTION('',(0.,0.,-1.));
#507 = DIRECTION('',(1.,0.,0.));
#508 = ORIENTED_EDGE('',*,*,#509,.T.);
#509 = EDGE_CURVE('',#501,#484,#510,.T.);
#510 = LINE('',#511,#512);
#511 = CARTESIAN_POINT('',(2.5,0.,-1.5));
#512 = VECTOR('',#513,1.);
#513 = DIRECTION('',(0.,0.,1.));
#514 = ORIENTED_EDGE('',*,*,#483,.T.);
#515 = ORIENTED_EDGE('',*,*,#509,.F.);
#516 = CYLINDRICAL_SURFACE('',#517,2.5);
#517 = AXIS2_PLACEMENT_3D('',#518,#519,#520);
#518 = CARTESIAN_POINT('',(0.,0.,-1.5));
#519 = DIRECTION('',(0.,0.,-1.));
#520 = DIRECTION('',(1.,0.,0.));
#521 = ADVANCED_FACE('',(#522,#525),#536,.T.);
#522 = FACE_BOUND('',#523,.T.);
#523 = EDGE_LOOP('',(#524));
#524 = ORIENTED_EDGE('',*,*,#500,.F.);
#525 = FACE_BOUND('',#526,.T.);
#526 = EDGE_LOOP('',(#527));
#527 = ORIENTED_EDGE('',*,*,#528,.T.);
#528 = EDGE_CURVE('',#529,#529,#531,.T.);
#529 = VERTEX_POINT('',#530);
#530 = CARTESIAN_POINT('',(1.25,3.236588708631E-32,-0.5));
#531 = CIRCLE('',#532,1.25);
#532 = AXIS2_PLACEMENT_3D('',#533,#534,#535);
#533 = CARTESIAN_POINT('',(-5.751829855855E-32,3.236588708631E-32,-0.5)
  );
#534 = DIRECTION('',(0.,0.,-1.));
#535 = DIRECTION('',(1.,0.,0.));
#536 = PLANE('',#537);
#537 = AXIS2_PLACEMENT_3D('',#538,#539,#540);
#538 = CARTESIAN_POINT('',(-9.496112031524E-17,-2.327247600517E-16,-0.5)
  );
#539 = DIRECTION('',(-2.576311454748E-33,2.846359209563E-33,1.));
#540 = DIRECTION('',(0.,1.,-2.846359209563E-33));
#541 = ADVANCED_FACE('',(#542),#561,.F.);
#542 = FACE_BOUND('',#543,.F.);
#543 = EDGE_LOOP('',(#544,#552,#553,#554));
#544 = ORIENTED_EDGE('',*,*,#545,.T.);
#545 = EDGE_CURVE('',#546,#529,#548,.T.);
#546 = VERTEX_POINT('',#547);
#547 = CARTESIAN_POINT('',(1.25,3.236588708631E-32,-1.5));
#548 = LINE('',#549,#550);
#549 = CARTESIAN_POINT('',(1.25,3.236588708631E-32,-1.5));
#550 = VECTOR('',#551,1.);
#551 = DIRECTION('',(0.,0.,1.));
#552 = ORIENTED_EDGE('',*,*,#528,.T.);
#553 = ORIENTED_EDGE('',*,*,#545,.F.);
#554 = ORIENTED_EDGE('',*,*,#555,.F.);
#555 = EDGE_CURVE('',#546,#546,#556,.T.);
#556 = CIRCLE('',#557,1.25);
#557 = AXIS2_PLACEMENT_3D('',#558,#559,#560);
#558 = CARTESIAN_POINT('',(-5.751829855855E-32,3.236588708631E-32,-1.5)
  );
#559 = DIRECTION('',(0.,0.,-1.));
#560 = DIRECTION('',(1.,0.,0.));
#561 = CYLINDRICAL_SURFACE('',#562,1.25);
#562 = AXIS2_PLACEMENT_3D('',#563,#564,#565);
#563 = CARTESIAN_POINT('',(-5.751829855855E-32,3.236588708631E-32,-1.5)
  );
#564 = DIRECTION('',(0.,0.,-1.));
#565 = DIRECTION('',(1.,0.,0.));
#566 = ADVANCED_FACE('',(#567,#582),#585,.T.);
#567 = FACE_BOUND('',#568,.T.);
#568 = EDGE_LOOP('',(#569,#570,#571,#572,#573,#574,#575,#576,#577,#578,
    #579,#580,#581));
#569 = ORIENTED_EDGE('',*,*,#300,.F.);
#570 = ORIENTED_EDGE('',*,*,#341,.F.);
#571 = ORIENTED_EDGE('',*,*,#398,.F.);
#572 = ORIENTED_EDGE('',*,*,#439,.F.);
#573 = ORIENTED_EDGE('',*,*,#415,.F.);
#574 = ORIENTED_EDGE('',*,*,#366,.F.);
#575 = ORIENTED_EDGE('',*,*,#317,.F.);
#576 = ORIENTED_EDGE('',*,*,#275,.F.);
#577 = ORIENTED_EDGE('',*,*,#244,.F.);
#578 = ORIENTED_EDGE('',*,*,#191,.F.);
#579 = ORIENTED_EDGE('',*,*,#39,.F.);
#580 = ORIENTED_EDGE('',*,*,#225,.F.);
#581 = ORIENTED_EDGE('',*,*,#216,.F.);
#582 = FACE_BOUND('',#583,.T.);
#583 = EDGE_LOOP('',(#584));
#584 = ORIENTED_EDGE('',*,*,#555,.F.);
#585 = PLANE('',#586);
#586 = AXIS2_PLACEMENT_3D('',#587,#588,#589);
#587 = CARTESIAN_POINT('',(3.630984862168E-02,-25.75868511119,-1.5));
#588 = DIRECTION('',(-3.834553237237E-32,2.157725805754E-32,-1.));
#589 = DIRECTION('',(-1.,0.,3.834553237237E-32));
#590 = ( GEOMETRIC_REPRESENTATION_CONTEXT(3) 
GLOBAL_UNCERTAINTY_ASSIGNED_CONTEXT((#594)) GLOBAL_UNIT_ASSIGNED_CONTEXT
((#591,#592,#593)) REPRESENTATION_CONTEXT('Context #1',
  '3D Context with UNIT and UNCERTAINTY') );
#591 = ( LENGTH_UNIT() NAMED_UNIT(*) SI_UNIT(.MILLI.,.METRE.) );
#592 = ( NAMED_UNIT(*) PLANE_ANGLE_UNIT() SI_UNIT($,.RADIAN.) );
#593 = ( NAMED_UNIT(*) SI_UNIT($,.STERADIAN.) SOLID_ANGLE_UNIT() );
#594 = UNCERTAINTY_MEASURE_WITH_UNIT(LENGTH_MEASURE(1.E-07),#591,
  'distance_accuracy_value','confusion accuracy');
#595 = PRODUCT_RELATED_PRODUCT_CATEGORY('part',$,(#7));
#596 = MECHANICAL_DESIGN_GEOMETRIC_PRESENTATION_REPRESENTATION('',(#597)
  ,#590);
#597 = STYLED_ITEM('color',(#598),#15);
#598 = PRESENTATION_STYLE_ASSIGNMENT((#599,#605));
#599 = SURFACE_STYLE_USAGE(.BOTH.,#600);
#600 = SURFACE_SIDE_STYLE('',(#601));
#601 = SURFACE_STYLE_FILL_AREA(#602);
#602 = FILL_AREA_STYLE('',(#603));
#603 = FILL_AREA_STYLE_COLOUR('',#604);
#604 = COLOUR_RGB('',0.447058818107,0.474509808674,0.501960817233);
#605 = CURVE_STYLE('',#606,POSITIVE_LENGTH_MEASURE(0.1),#607);
#606 = DRAUGHTING_PRE_DEFINED_CURVE_FONT('continuous');
#607 = COLOUR_RGB('',9.803921802644E-02,9.803921802644E-02,
  9.803921802644E-02);
ENDSEC;
END-ISO-10303-21;
