ISO-10303-21;
HEADER;
FILE_DESCRIPTION(('FreeCAD Model'),'2;1');
FILE_NAME('Open CASCADE Shape Model','2025-07-21T18:23:54',('Author'),(
    ''),'Open CASCADE STEP processor 7.6','FreeCAD','Unknown');
FILE_SCHEMA(('AUTOMOTIVE_DESIGN { 1 0 10303 214 1 1 1 1 }'));
ENDSEC;
DATA;
#1 = APPLICATION_PROTOCOL_DEFINITION('international standard',
  'automotive_design',2000,#2);
#2 = APPLICATION_CONTEXT(
  'core data for automotive mechanical design processes');
#3 = SHAPE_DEFINITION_REPRESENTATION(#4,#10);
#4 = PRODUCT_DEFINITION_SHAPE('','',#5);
#5 = PRODUCT_DEFINITION('design','',#6,#9);
#6 = PRODUCT_DEFINITION_FORMATION('','',#7);
#7 = PRODUCT('couvercle','couvercle','',(#8));
#8 = PRODUCT_CONTEXT('',#2,'mechanical');
#9 = PRODUCT_DEFINITION_CONTEXT('part definition',#2,'design');
#10 = ADVANCED_BREP_SHAPE_REPRESENTATION('',(#11,#15),#1398);
#11 = AXIS2_PLACEMENT_3D('',#12,#13,#14);
#12 = CARTESIAN_POINT('',(0.,0.,0.));
#13 = DIRECTION('',(0.,0.,1.));
#14 = DIRECTION('',(1.,0.,-0.));
#15 = MANIFOLD_SOLID_BREP('',#16);
#16 = CLOSED_SHELL('',(#17,#59,#90,#122,#251,#275,#300,#324,#546,#563,
    #594,#619,#644,#668,#692,#717,#742,#759,#784,#808,#833,#850,#867,
    #884,#901,#918,#930,#955,#980,#1005,#1037,#1061,#1086,#1103,#1135,
    #1159,#1184,#1201,#1233,#1257,#1282,#1299,#1324,#1349));
#17 = ADVANCED_FACE('',(#18),#54,.T.);
#18 = FACE_BOUND('',#19,.F.);
#19 = EDGE_LOOP('',(#20,#30,#39,#47));
#20 = ORIENTED_EDGE('',*,*,#21,.T.);
#21 = EDGE_CURVE('',#22,#24,#26,.T.);
#22 = VERTEX_POINT('',#23);
#23 = CARTESIAN_POINT('',(61.883034292965,-65.38303429296,0.));
#24 = VERTEX_POINT('',#25);
#25 = CARTESIAN_POINT('',(61.883034292965,-65.38303429296,1.E-02));
#26 = LINE('',#27,#28);
#27 = CARTESIAN_POINT('',(61.883034292965,-65.38303429296,0.));
#28 = VECTOR('',#29,1.);
#29 = DIRECTION('',(0.,0.,1.));
#30 = ORIENTED_EDGE('',*,*,#31,.T.);
#31 = EDGE_CURVE('',#24,#32,#34,.T.);
#32 = VERTEX_POINT('',#33);
#33 = CARTESIAN_POINT('',(65.383034292965,-61.88303429296,1.E-02));
#34 = CIRCLE('',#35,3.5);
#35 = AXIS2_PLACEMENT_3D('',#36,#37,#38);
#36 = CARTESIAN_POINT('',(61.883034292965,-61.88303429296,1.E-02));
#37 = DIRECTION('',(-0.,0.,1.));
#38 = DIRECTION('',(0.,-1.,0.));
#39 = ORIENTED_EDGE('',*,*,#40,.F.);
#40 = EDGE_CURVE('',#41,#32,#43,.T.);
#41 = VERTEX_POINT('',#42);
#42 = CARTESIAN_POINT('',(65.383034292965,-61.88303429296,0.));
#43 = LINE('',#44,#45);
#44 = CARTESIAN_POINT('',(65.383034292965,-61.88303429296,0.));
#45 = VECTOR('',#46,1.);
#46 = DIRECTION('',(0.,0.,1.));
#47 = ORIENTED_EDGE('',*,*,#48,.F.);
#48 = EDGE_CURVE('',#22,#41,#49,.T.);
#49 = CIRCLE('',#50,3.5);
#50 = AXIS2_PLACEMENT_3D('',#51,#52,#53);
#51 = CARTESIAN_POINT('',(61.883034292965,-61.88303429296,0.));
#52 = DIRECTION('',(0.,0.,1.));
#53 = DIRECTION('',(1.,0.,0.));
#54 = CYLINDRICAL_SURFACE('',#55,3.5);
#55 = AXIS2_PLACEMENT_3D('',#56,#57,#58);
#56 = CARTESIAN_POINT('',(61.883034292965,-61.88303429296,0.));
#57 = DIRECTION('',(-0.,-0.,-1.));
#58 = DIRECTION('',(1.,0.,0.));
#59 = ADVANCED_FACE('',(#60),#85,.F.);
#60 = FACE_BOUND('',#61,.F.);
#61 = EDGE_LOOP('',(#62,#72,#78,#79));
#62 = ORIENTED_EDGE('',*,*,#63,.T.);
#63 = EDGE_CURVE('',#64,#66,#68,.T.);
#64 = VERTEX_POINT('',#65);
#65 = CARTESIAN_POINT('',(-59.58175457229,-65.38303429296,0.));
#66 = VERTEX_POINT('',#67);
#67 = CARTESIAN_POINT('',(-59.58175457229,-65.38303429296,1.E-02));
#68 = LINE('',#69,#70);
#69 = CARTESIAN_POINT('',(-59.58175457229,-65.38303429296,0.));
#70 = VECTOR('',#71,1.);
#71 = DIRECTION('',(0.,0.,1.));
#72 = ORIENTED_EDGE('',*,*,#73,.T.);
#73 = EDGE_CURVE('',#66,#24,#74,.T.);
#74 = LINE('',#75,#76);
#75 = CARTESIAN_POINT('',(-59.58175457229,-65.38303429296,1.E-02));
#76 = VECTOR('',#77,1.);
#77 = DIRECTION('',(1.,0.,0.));
#78 = ORIENTED_EDGE('',*,*,#21,.F.);
#79 = ORIENTED_EDGE('',*,*,#80,.F.);
#80 = EDGE_CURVE('',#64,#22,#81,.T.);
#81 = LINE('',#82,#83);
#82 = CARTESIAN_POINT('',(-59.58175457229,-65.38303429296,0.));
#83 = VECTOR('',#84,1.);
#84 = DIRECTION('',(1.,0.,0.));
#85 = PLANE('',#86);
#86 = AXIS2_PLACEMENT_3D('',#87,#88,#89);
#87 = CARTESIAN_POINT('',(-59.58175457229,-65.38303429296,0.));
#88 = DIRECTION('',(0.,1.,0.));
#89 = DIRECTION('',(1.,0.,0.));
#90 = ADVANCED_FACE('',(#91),#117,.T.);
#91 = FACE_BOUND('',#92,.T.);
#92 = EDGE_LOOP('',(#93,#101,#102,#110));
#93 = ORIENTED_EDGE('',*,*,#94,.F.);
#94 = EDGE_CURVE('',#24,#95,#97,.T.);
#95 = VERTEX_POINT('',#96);
#96 = CARTESIAN_POINT('',(61.883034292965,-64.88303429296,1.));
#97 = LINE('',#98,#99);
#98 = CARTESIAN_POINT('',(61.883034292965,-65.13303429296,0.505));
#99 = VECTOR('',#100,1.);
#100 = DIRECTION('',(0.,0.450816491833,0.892616653828));
#101 = ORIENTED_EDGE('',*,*,#31,.T.);
#102 = ORIENTED_EDGE('',*,*,#103,.T.);
#103 = EDGE_CURVE('',#32,#104,#106,.T.);
#104 = VERTEX_POINT('',#105);
#105 = CARTESIAN_POINT('',(64.883034292965,-61.88303429296,1.));
#106 = LINE('',#107,#108);
#107 = CARTESIAN_POINT('',(65.133034292965,-61.88303429296,0.505));
#108 = VECTOR('',#109,1.);
#109 = DIRECTION('',(-0.450816491833,0.,0.892616653828));
#110 = ORIENTED_EDGE('',*,*,#111,.F.);
#111 = EDGE_CURVE('',#95,#104,#112,.T.);
#112 = CIRCLE('',#113,3.);
#113 = AXIS2_PLACEMENT_3D('',#114,#115,#116);
#114 = CARTESIAN_POINT('',(61.883034292965,-61.88303429296,1.));
#115 = DIRECTION('',(-0.,0.,1.));
#116 = DIRECTION('',(0.,-1.,0.));
#117 = CONICAL_SURFACE('',#118,3.5,0.467679845212);
#118 = AXIS2_PLACEMENT_3D('',#119,#120,#121);
#119 = CARTESIAN_POINT('',(61.883034292965,-61.88303429296,1.E-02));
#120 = DIRECTION('',(-0.,-0.,-1.));
#121 = DIRECTION('',(0.,-1.,0.));
#122 = ADVANCED_FACE('',(#123,#193),#246,.T.);
#123 = FACE_BOUND('',#124,.T.);
#124 = EDGE_LOOP('',(#125,#135,#144,#152,#161,#169,#178,#186));
#125 = ORIENTED_EDGE('',*,*,#126,.T.);
#126 = EDGE_CURVE('',#127,#129,#131,.T.);
#127 = VERTEX_POINT('',#128);
#128 = CARTESIAN_POINT('',(-59.58175457229,-66.88303429296,0.));
#129 = VERTEX_POINT('',#130);
#130 = CARTESIAN_POINT('',(61.883034292965,-66.88303429296,0.));
#131 = LINE('',#132,#133);
#132 = CARTESIAN_POINT('',(-59.58175457229,-66.88303429296,0.));
#133 = VECTOR('',#134,1.);
#134 = DIRECTION('',(1.,0.,0.));
#135 = ORIENTED_EDGE('',*,*,#136,.T.);
#136 = EDGE_CURVE('',#129,#137,#139,.T.);
#137 = VERTEX_POINT('',#138);
#138 = CARTESIAN_POINT('',(66.883034292965,-61.88303429296,0.));
#139 = CIRCLE('',#140,5.);
#140 = AXIS2_PLACEMENT_3D('',#141,#142,#143);
#141 = CARTESIAN_POINT('',(61.883034292965,-61.88303429296,0.));
#142 = DIRECTION('',(0.,0.,1.));
#143 = DIRECTION('',(1.,0.,0.));
#144 = ORIENTED_EDGE('',*,*,#145,.T.);
#145 = EDGE_CURVE('',#137,#146,#148,.T.);
#146 = VERTEX_POINT('',#147);
#147 = CARTESIAN_POINT('',(66.883034292965,8.03,0.));
#148 = LINE('',#149,#150);
#149 = CARTESIAN_POINT('',(66.883034292965,-61.88303429296,0.));
#150 = VECTOR('',#151,1.);
#151 = DIRECTION('',(0.,1.,0.));
#152 = ORIENTED_EDGE('',*,*,#153,.T.);
#153 = EDGE_CURVE('',#146,#154,#156,.T.);
#154 = VERTEX_POINT('',#155);
#155 = CARTESIAN_POINT('',(61.883034292965,13.03,0.));
#156 = CIRCLE('',#157,5.);
#157 = AXIS2_PLACEMENT_3D('',#158,#159,#160);
#158 = CARTESIAN_POINT('',(61.883034292965,8.03,0.));
#159 = DIRECTION('',(0.,0.,1.));
#160 = DIRECTION('',(1.,0.,0.));
#161 = ORIENTED_EDGE('',*,*,#162,.T.);
#162 = EDGE_CURVE('',#154,#163,#165,.T.);
#163 = VERTEX_POINT('',#164);
#164 = CARTESIAN_POINT('',(-59.58175457229,13.03,0.));
#165 = LINE('',#166,#167);
#166 = CARTESIAN_POINT('',(61.883034292965,13.03,0.));
#167 = VECTOR('',#168,1.);
#168 = DIRECTION('',(-1.,0.,0.));
#169 = ORIENTED_EDGE('',*,*,#170,.T.);
#170 = EDGE_CURVE('',#163,#171,#173,.T.);
#171 = VERTEX_POINT('',#172);
#172 = CARTESIAN_POINT('',(-64.58175457229,8.03,0.));
#173 = CIRCLE('',#174,5.);
#174 = AXIS2_PLACEMENT_3D('',#175,#176,#177);
#175 = CARTESIAN_POINT('',(-59.58175457229,8.03,0.));
#176 = DIRECTION('',(0.,0.,1.));
#177 = DIRECTION('',(1.,0.,0.));
#178 = ORIENTED_EDGE('',*,*,#179,.T.);
#179 = EDGE_CURVE('',#171,#180,#182,.T.);
#180 = VERTEX_POINT('',#181);
#181 = CARTESIAN_POINT('',(-64.58175457229,-61.88303429296,0.));
#182 = LINE('',#183,#184);
#183 = CARTESIAN_POINT('',(-64.58175457229,8.03,0.));
#184 = VECTOR('',#185,1.);
#185 = DIRECTION('',(0.,-1.,0.));
#186 = ORIENTED_EDGE('',*,*,#187,.T.);
#187 = EDGE_CURVE('',#180,#127,#188,.T.);
#188 = CIRCLE('',#189,5.);
#189 = AXIS2_PLACEMENT_3D('',#190,#191,#192);
#190 = CARTESIAN_POINT('',(-59.58175457229,-61.88303429296,0.));
#191 = DIRECTION('',(0.,0.,1.));
#192 = DIRECTION('',(1.,0.,0.));
#193 = FACE_BOUND('',#194,.T.);
#194 = EDGE_LOOP('',(#195,#196,#197,#206,#214,#223,#231,#240));
#195 = ORIENTED_EDGE('',*,*,#48,.F.);
#196 = ORIENTED_EDGE('',*,*,#80,.F.);
#197 = ORIENTED_EDGE('',*,*,#198,.F.);
#198 = EDGE_CURVE('',#199,#64,#201,.T.);
#199 = VERTEX_POINT('',#200);
#200 = CARTESIAN_POINT('',(-63.08175457229,-61.88303429296,0.));
#201 = CIRCLE('',#202,3.5);
#202 = AXIS2_PLACEMENT_3D('',#203,#204,#205);
#203 = CARTESIAN_POINT('',(-59.58175457229,-61.88303429296,0.));
#204 = DIRECTION('',(0.,0.,1.));
#205 = DIRECTION('',(1.,0.,0.));
#206 = ORIENTED_EDGE('',*,*,#207,.F.);
#207 = EDGE_CURVE('',#208,#199,#210,.T.);
#208 = VERTEX_POINT('',#209);
#209 = CARTESIAN_POINT('',(-63.08175457229,8.03,0.));
#210 = LINE('',#211,#212);
#211 = CARTESIAN_POINT('',(-63.08175457229,8.03,0.));
#212 = VECTOR('',#213,1.);
#213 = DIRECTION('',(0.,-1.,0.));
#214 = ORIENTED_EDGE('',*,*,#215,.F.);
#215 = EDGE_CURVE('',#216,#208,#218,.T.);
#216 = VERTEX_POINT('',#217);
#217 = CARTESIAN_POINT('',(-59.58175457229,11.53,0.));
#218 = CIRCLE('',#219,3.5);
#219 = AXIS2_PLACEMENT_3D('',#220,#221,#222);
#220 = CARTESIAN_POINT('',(-59.58175457229,8.03,0.));
#221 = DIRECTION('',(0.,0.,1.));
#222 = DIRECTION('',(1.,0.,0.));
#223 = ORIENTED_EDGE('',*,*,#224,.F.);
#224 = EDGE_CURVE('',#225,#216,#227,.T.);
#225 = VERTEX_POINT('',#226);
#226 = CARTESIAN_POINT('',(61.883034292965,11.53,0.));
#227 = LINE('',#228,#229);
#228 = CARTESIAN_POINT('',(61.883034292965,11.53,0.));
#229 = VECTOR('',#230,1.);
#230 = DIRECTION('',(-1.,0.,0.));
#231 = ORIENTED_EDGE('',*,*,#232,.F.);
#232 = EDGE_CURVE('',#233,#225,#235,.T.);
#233 = VERTEX_POINT('',#234);
#234 = CARTESIAN_POINT('',(65.383034292965,8.03,0.));
#235 = CIRCLE('',#236,3.5);
#236 = AXIS2_PLACEMENT_3D('',#237,#238,#239);
#237 = CARTESIAN_POINT('',(61.883034292965,8.03,0.));
#238 = DIRECTION('',(0.,0.,1.));
#239 = DIRECTION('',(1.,0.,0.));
#240 = ORIENTED_EDGE('',*,*,#241,.F.);
#241 = EDGE_CURVE('',#41,#233,#242,.T.);
#242 = LINE('',#243,#244);
#243 = CARTESIAN_POINT('',(65.383034292965,-61.88303429296,0.));
#244 = VECTOR('',#245,1.);
#245 = DIRECTION('',(0.,1.,0.));
#246 = PLANE('',#247);
#247 = AXIS2_PLACEMENT_3D('',#248,#249,#250);
#248 = CARTESIAN_POINT('',(1.150639860334,-26.92651714648,0.));
#249 = DIRECTION('',(0.,0.,1.));
#250 = DIRECTION('',(1.,0.,0.));
#251 = ADVANCED_FACE('',(#252),#270,.F.);
#252 = FACE_BOUND('',#253,.F.);
#253 = EDGE_LOOP('',(#254,#255,#263,#269));
#254 = ORIENTED_EDGE('',*,*,#40,.T.);
#255 = ORIENTED_EDGE('',*,*,#256,.T.);
#256 = EDGE_CURVE('',#32,#257,#259,.T.);
#257 = VERTEX_POINT('',#258);
#258 = CARTESIAN_POINT('',(65.383034292965,8.03,1.E-02));
#259 = LINE('',#260,#261);
#260 = CARTESIAN_POINT('',(65.383034292965,-61.88303429296,1.E-02));
#261 = VECTOR('',#262,1.);
#262 = DIRECTION('',(0.,1.,0.));
#263 = ORIENTED_EDGE('',*,*,#264,.F.);
#264 = EDGE_CURVE('',#233,#257,#265,.T.);
#265 = LINE('',#266,#267);
#266 = CARTESIAN_POINT('',(65.383034292965,8.03,0.));
#267 = VECTOR('',#268,1.);
#268 = DIRECTION('',(0.,0.,1.));
#269 = ORIENTED_EDGE('',*,*,#241,.F.);
#270 = PLANE('',#271);
#271 = AXIS2_PLACEMENT_3D('',#272,#273,#274);
#272 = CARTESIAN_POINT('',(65.383034292965,-61.88303429296,0.));
#273 = DIRECTION('',(-1.,0.,0.));
#274 = DIRECTION('',(0.,1.,0.));
#275 = ADVANCED_FACE('',(#276),#295,.T.);
#276 = FACE_BOUND('',#277,.F.);
#277 = EDGE_LOOP('',(#278,#286,#293,#294));
#278 = ORIENTED_EDGE('',*,*,#279,.T.);
#279 = EDGE_CURVE('',#199,#280,#282,.T.);
#280 = VERTEX_POINT('',#281);
#281 = CARTESIAN_POINT('',(-63.08175457229,-61.88303429296,1.E-02));
#282 = LINE('',#283,#284);
#283 = CARTESIAN_POINT('',(-63.08175457229,-61.88303429296,0.));
#284 = VECTOR('',#285,1.);
#285 = DIRECTION('',(0.,0.,1.));
#286 = ORIENTED_EDGE('',*,*,#287,.T.);
#287 = EDGE_CURVE('',#280,#66,#288,.T.);
#288 = CIRCLE('',#289,3.5);
#289 = AXIS2_PLACEMENT_3D('',#290,#291,#292);
#290 = CARTESIAN_POINT('',(-59.58175457229,-61.88303429296,1.E-02));
#291 = DIRECTION('',(0.,0.,1.));
#292 = DIRECTION('',(-1.,0.,0.));
#293 = ORIENTED_EDGE('',*,*,#63,.F.);
#294 = ORIENTED_EDGE('',*,*,#198,.F.);
#295 = CYLINDRICAL_SURFACE('',#296,3.5);
#296 = AXIS2_PLACEMENT_3D('',#297,#298,#299);
#297 = CARTESIAN_POINT('',(-59.58175457229,-61.88303429296,0.));
#298 = DIRECTION('',(-0.,-0.,-1.));
#299 = DIRECTION('',(1.,0.,0.));
#300 = ADVANCED_FACE('',(#301),#319,.F.);
#301 = FACE_BOUND('',#302,.T.);
#302 = EDGE_LOOP('',(#303,#311,#312,#313));
#303 = ORIENTED_EDGE('',*,*,#304,.F.);
#304 = EDGE_CURVE('',#66,#305,#307,.T.);
#305 = VERTEX_POINT('',#306);
#306 = CARTESIAN_POINT('',(-59.58175457229,-64.88303429296,1.));
#307 = LINE('',#308,#309);
#308 = CARTESIAN_POINT('',(-59.58175457229,-65.38303429296,1.E-02));
#309 = VECTOR('',#310,1.);
#310 = DIRECTION('',(4.280100279768E-16,0.450816491833,0.892616653828));
#311 = ORIENTED_EDGE('',*,*,#73,.T.);
#312 = ORIENTED_EDGE('',*,*,#94,.T.);
#313 = ORIENTED_EDGE('',*,*,#314,.F.);
#314 = EDGE_CURVE('',#305,#95,#315,.T.);
#315 = LINE('',#316,#317);
#316 = CARTESIAN_POINT('',(-59.58175457229,-64.88303429296,1.));
#317 = VECTOR('',#318,1.);
#318 = DIRECTION('',(1.,0.,0.));
#319 = PLANE('',#320);
#320 = AXIS2_PLACEMENT_3D('',#321,#322,#323);
#321 = CARTESIAN_POINT('',(-59.58175457229,-65.13303429296,0.505));
#322 = DIRECTION('',(0.,0.892616653828,-0.450816491833));
#323 = DIRECTION('',(-1.,-0.,-0.));
#324 = ADVANCED_FACE('',(#325,#378,#389,#400,#411,#447,#483,#519,#530),
  #541,.T.);
#325 = FACE_BOUND('',#326,.T.);
#326 = EDGE_LOOP('',(#327,#335,#344,#352,#361,#369,#376,#377));
#327 = ORIENTED_EDGE('',*,*,#328,.T.);
#328 = EDGE_CURVE('',#104,#329,#331,.T.);
#329 = VERTEX_POINT('',#330);
#330 = CARTESIAN_POINT('',(64.883034292965,8.03,1.));
#331 = LINE('',#332,#333);
#332 = CARTESIAN_POINT('',(64.883034292965,-61.88303429296,1.));
#333 = VECTOR('',#334,1.);
#334 = DIRECTION('',(0.,1.,0.));
#335 = ORIENTED_EDGE('',*,*,#336,.T.);
#336 = EDGE_CURVE('',#329,#337,#339,.T.);
#337 = VERTEX_POINT('',#338);
#338 = CARTESIAN_POINT('',(61.883034292965,11.03,1.));
#339 = CIRCLE('',#340,3.);
#340 = AXIS2_PLACEMENT_3D('',#341,#342,#343);
#341 = CARTESIAN_POINT('',(61.883034292965,8.03,1.));
#342 = DIRECTION('',(0.,0.,1.));
#343 = DIRECTION('',(1.,0.,0.));
#344 = ORIENTED_EDGE('',*,*,#345,.T.);
#345 = EDGE_CURVE('',#337,#346,#348,.T.);
#346 = VERTEX_POINT('',#347);
#347 = CARTESIAN_POINT('',(-59.58175457229,11.03,1.));
#348 = LINE('',#349,#350);
#349 = CARTESIAN_POINT('',(61.883034292965,11.03,1.));
#350 = VECTOR('',#351,1.);
#351 = DIRECTION('',(-1.,0.,0.));
#352 = ORIENTED_EDGE('',*,*,#353,.T.);
#353 = EDGE_CURVE('',#346,#354,#356,.T.);
#354 = VERTEX_POINT('',#355);
#355 = CARTESIAN_POINT('',(-62.58175457229,8.03,1.));
#356 = CIRCLE('',#357,3.);
#357 = AXIS2_PLACEMENT_3D('',#358,#359,#360);
#358 = CARTESIAN_POINT('',(-59.58175457229,8.03,1.));
#359 = DIRECTION('',(0.,-0.,1.));
#360 = DIRECTION('',(0.,1.,0.));
#361 = ORIENTED_EDGE('',*,*,#362,.T.);
#362 = EDGE_CURVE('',#354,#363,#365,.T.);
#363 = VERTEX_POINT('',#364);
#364 = CARTESIAN_POINT('',(-62.58175457229,-61.88303429296,1.));
#365 = LINE('',#366,#367);
#366 = CARTESIAN_POINT('',(-62.58175457229,8.03,1.));
#367 = VECTOR('',#368,1.);
#368 = DIRECTION('',(0.,-1.,0.));
#369 = ORIENTED_EDGE('',*,*,#370,.T.);
#370 = EDGE_CURVE('',#363,#305,#371,.T.);
#371 = CIRCLE('',#372,3.);
#372 = AXIS2_PLACEMENT_3D('',#373,#374,#375);
#373 = CARTESIAN_POINT('',(-59.58175457229,-61.88303429296,1.));
#374 = DIRECTION('',(0.,0.,1.));
#375 = DIRECTION('',(-1.,0.,0.));
#376 = ORIENTED_EDGE('',*,*,#314,.T.);
#377 = ORIENTED_EDGE('',*,*,#111,.T.);
#378 = FACE_BOUND('',#379,.T.);
#379 = EDGE_LOOP('',(#380));
#380 = ORIENTED_EDGE('',*,*,#381,.F.);
#381 = EDGE_CURVE('',#382,#382,#384,.T.);
#382 = VERTEX_POINT('',#383);
#383 = CARTESIAN_POINT('',(-58.03175457229,-61.88303429296,1.));
#384 = CIRCLE('',#385,1.55);
#385 = AXIS2_PLACEMENT_3D('',#386,#387,#388);
#386 = CARTESIAN_POINT('',(-59.58175457229,-61.88303429296,1.));
#387 = DIRECTION('',(0.,0.,1.));
#388 = DIRECTION('',(1.,0.,0.));
#389 = FACE_BOUND('',#390,.T.);
#390 = EDGE_LOOP('',(#391));
#391 = ORIENTED_EDGE('',*,*,#392,.F.);
#392 = EDGE_CURVE('',#393,#393,#395,.T.);
#393 = VERTEX_POINT('',#394);
#394 = CARTESIAN_POINT('',(1.55,-61.88303429296,1.));
#395 = CIRCLE('',#396,1.55);
#396 = AXIS2_PLACEMENT_3D('',#397,#398,#399);
#397 = CARTESIAN_POINT('',(0.,-61.88303429296,1.));
#398 = DIRECTION('',(0.,0.,1.));
#399 = DIRECTION('',(1.,0.,0.));
#400 = FACE_BOUND('',#401,.T.);
#401 = EDGE_LOOP('',(#402));
#402 = ORIENTED_EDGE('',*,*,#403,.F.);
#403 = EDGE_CURVE('',#404,#404,#406,.T.);
#404 = VERTEX_POINT('',#405);
#405 = CARTESIAN_POINT('',(63.433034292965,-61.88303429296,1.));
#406 = CIRCLE('',#407,1.55);
#407 = AXIS2_PLACEMENT_3D('',#408,#409,#410);
#408 = CARTESIAN_POINT('',(61.883034292965,-61.88303429296,1.));
#409 = DIRECTION('',(0.,0.,1.));
#410 = DIRECTION('',(1.,0.,0.));
#411 = FACE_BOUND('',#412,.T.);
#412 = EDGE_LOOP('',(#413,#424,#432,#441));
#413 = ORIENTED_EDGE('',*,*,#414,.F.);
#414 = EDGE_CURVE('',#415,#417,#419,.T.);
#415 = VERTEX_POINT('',#416);
#416 = CARTESIAN_POINT('',(-52.75226149024,-50.94499721745,1.));
#417 = VERTEX_POINT('',#418);
#418 = CARTESIAN_POINT('',(-50.41124765434,-52.82107136847,1.));
#419 = CIRCLE('',#420,1.5);
#420 = AXIS2_PLACEMENT_3D('',#421,#422,#423);
#421 = CARTESIAN_POINT('',(-51.58175457229,-51.88303429296,1.));
#422 = DIRECTION('',(0.,0.,1.));
#423 = DIRECTION('',(1.,0.,0.));
#424 = ORIENTED_EDGE('',*,*,#425,.T.);
#425 = EDGE_CURVE('',#415,#426,#428,.T.);
#426 = VERTEX_POINT('',#427);
#427 = CARTESIAN_POINT('',(-12.75226149024,-1.03196292449,1.));
#428 = LINE('',#429,#430);
#429 = CARTESIAN_POINT('',(-52.75226149024,-50.94499721745,1.));
#430 = VECTOR('',#431,1.);
#431 = DIRECTION('',(0.62535805034,0.7803379453,0.));
#432 = ORIENTED_EDGE('',*,*,#433,.F.);
#433 = EDGE_CURVE('',#434,#426,#436,.T.);
#434 = VERTEX_POINT('',#435);
#435 = CARTESIAN_POINT('',(-10.41124765434,-2.90803707551,1.));
#436 = CIRCLE('',#437,1.5);
#437 = AXIS2_PLACEMENT_3D('',#438,#439,#440);
#438 = CARTESIAN_POINT('',(-11.58175457229,-1.97,1.));
#439 = DIRECTION('',(0.,0.,1.));
#440 = DIRECTION('',(1.,0.,0.));
#441 = ORIENTED_EDGE('',*,*,#442,.F.);
#442 = EDGE_CURVE('',#417,#434,#443,.T.);
#443 = LINE('',#444,#445);
#444 = CARTESIAN_POINT('',(-50.41124765434,-52.82107136847,1.));
#445 = VECTOR('',#446,1.);
#446 = DIRECTION('',(0.62535805034,0.7803379453,0.));
#447 = FACE_BOUND('',#448,.T.);
#448 = EDGE_LOOP('',(#449,#460,#468,#477));
#449 = ORIENTED_EDGE('',*,*,#450,.F.);
#450 = EDGE_CURVE('',#451,#453,#455,.T.);
#451 = VERTEX_POINT('',#452);
#452 = CARTESIAN_POINT('',(-40.75226149024,-50.94499721745,1.));
#453 = VERTEX_POINT('',#454);
#454 = CARTESIAN_POINT('',(-38.41124765434,-52.82107136847,1.));
#455 = CIRCLE('',#456,1.5);
#456 = AXIS2_PLACEMENT_3D('',#457,#458,#459);
#457 = CARTESIAN_POINT('',(-39.58175457229,-51.88303429296,1.));
#458 = DIRECTION('',(0.,0.,1.));
#459 = DIRECTION('',(1.,0.,0.));
#460 = ORIENTED_EDGE('',*,*,#461,.T.);
#461 = EDGE_CURVE('',#451,#462,#464,.T.);
#462 = VERTEX_POINT('',#463);
#463 = CARTESIAN_POINT('',(-0.752261490247,-1.03196292449,1.));
#464 = LINE('',#465,#466);
#465 = CARTESIAN_POINT('',(-40.75226149024,-50.94499721745,1.));
#466 = VECTOR('',#467,1.);
#467 = DIRECTION('',(0.62535805034,0.7803379453,0.));
#468 = ORIENTED_EDGE('',*,*,#469,.F.);
#469 = EDGE_CURVE('',#470,#462,#472,.T.);
#470 = VERTEX_POINT('',#471);
#471 = CARTESIAN_POINT('',(1.588752345653,-2.90803707551,1.));
#472 = CIRCLE('',#473,1.5);
#473 = AXIS2_PLACEMENT_3D('',#474,#475,#476);
#474 = CARTESIAN_POINT('',(0.418245427703,-1.97,1.));
#475 = DIRECTION('',(0.,0.,1.));
#476 = DIRECTION('',(1.,0.,0.));
#477 = ORIENTED_EDGE('',*,*,#478,.F.);
#478 = EDGE_CURVE('',#453,#470,#479,.T.);
#479 = LINE('',#480,#481);
#480 = CARTESIAN_POINT('',(-38.41124765434,-52.82107136847,1.));
#481 = VECTOR('',#482,1.);
#482 = DIRECTION('',(0.62535805034,0.7803379453,0.));
#483 = FACE_BOUND('',#484,.T.);
#484 = EDGE_LOOP('',(#485,#496,#504,#513));
#485 = ORIENTED_EDGE('',*,*,#486,.F.);
#486 = EDGE_CURVE('',#487,#489,#491,.T.);
#487 = VERTEX_POINT('',#488);
#488 = CARTESIAN_POINT('',(-28.75226149024,-50.94499721745,1.));
#489 = VERTEX_POINT('',#490);
#490 = CARTESIAN_POINT('',(-26.41124765434,-52.82107136847,1.));
#491 = CIRCLE('',#492,1.5);
#492 = AXIS2_PLACEMENT_3D('',#493,#494,#495);
#493 = CARTESIAN_POINT('',(-27.58175457229,-51.88303429296,1.));
#494 = DIRECTION('',(0.,0.,1.));
#495 = DIRECTION('',(1.,0.,0.));
#496 = ORIENTED_EDGE('',*,*,#497,.T.);
#497 = EDGE_CURVE('',#487,#498,#500,.T.);
#498 = VERTEX_POINT('',#499);
#499 = CARTESIAN_POINT('',(11.247738509753,-1.03196292449,1.));
#500 = LINE('',#501,#502);
#501 = CARTESIAN_POINT('',(-28.75226149024,-50.94499721745,1.));
#502 = VECTOR('',#503,1.);
#503 = DIRECTION('',(0.62535805034,0.7803379453,0.));
#504 = ORIENTED_EDGE('',*,*,#505,.F.);
#505 = EDGE_CURVE('',#506,#498,#508,.T.);
#506 = VERTEX_POINT('',#507);
#507 = CARTESIAN_POINT('',(13.588752345653,-2.90803707551,1.));
#508 = CIRCLE('',#509,1.5);
#509 = AXIS2_PLACEMENT_3D('',#510,#511,#512);
#510 = CARTESIAN_POINT('',(12.418245427703,-1.97,1.));
#511 = DIRECTION('',(0.,0.,1.));
#512 = DIRECTION('',(1.,0.,0.));
#513 = ORIENTED_EDGE('',*,*,#514,.F.);
#514 = EDGE_CURVE('',#489,#506,#515,.T.);
#515 = LINE('',#516,#517);
#516 = CARTESIAN_POINT('',(-26.41124765434,-52.82107136847,1.));
#517 = VECTOR('',#518,1.);
#518 = DIRECTION('',(0.62535805034,0.7803379453,0.));
#519 = FACE_BOUND('',#520,.T.);
#520 = EDGE_LOOP('',(#521));
#521 = ORIENTED_EDGE('',*,*,#522,.F.);
#522 = EDGE_CURVE('',#523,#523,#525,.T.);
#523 = VERTEX_POINT('',#524);
#524 = CARTESIAN_POINT('',(14.55,8.03,1.));
#525 = CIRCLE('',#526,1.55);
#526 = AXIS2_PLACEMENT_3D('',#527,#528,#529);
#527 = CARTESIAN_POINT('',(13.,8.03,1.));
#528 = DIRECTION('',(0.,0.,1.));
#529 = DIRECTION('',(1.,0.,0.));
#530 = FACE_BOUND('',#531,.T.);
#531 = EDGE_LOOP('',(#532));
#532 = ORIENTED_EDGE('',*,*,#533,.F.);
#533 = EDGE_CURVE('',#534,#534,#536,.T.);
#534 = VERTEX_POINT('',#535);
#535 = CARTESIAN_POINT('',(63.433034292965,8.03,1.));
#536 = CIRCLE('',#537,1.55);
#537 = AXIS2_PLACEMENT_3D('',#538,#539,#540);
#538 = CARTESIAN_POINT('',(61.883034292965,8.03,1.));
#539 = DIRECTION('',(0.,0.,1.));
#540 = DIRECTION('',(1.,0.,0.));
#541 = PLANE('',#542);
#542 = AXIS2_PLACEMENT_3D('',#543,#544,#545);
#543 = CARTESIAN_POINT('',(1.150639860334,-26.92651714648,1.));
#544 = DIRECTION('',(0.,0.,1.));
#545 = DIRECTION('',(1.,0.,0.));
#546 = ADVANCED_FACE('',(#547),#558,.F.);
#547 = FACE_BOUND('',#548,.T.);
#548 = EDGE_LOOP('',(#549,#550,#551,#557));
#549 = ORIENTED_EDGE('',*,*,#103,.F.);
#550 = ORIENTED_EDGE('',*,*,#256,.T.);
#551 = ORIENTED_EDGE('',*,*,#552,.T.);
#552 = EDGE_CURVE('',#257,#329,#553,.T.);
#553 = LINE('',#554,#555);
#554 = CARTESIAN_POINT('',(65.133034292965,8.03,0.505));
#555 = VECTOR('',#556,1.);
#556 = DIRECTION('',(-0.450816491833,0.,0.892616653828));
#557 = ORIENTED_EDGE('',*,*,#328,.F.);
#558 = PLANE('',#559);
#559 = AXIS2_PLACEMENT_3D('',#560,#561,#562);
#560 = CARTESIAN_POINT('',(65.133034292965,-61.88303429296,0.505));
#561 = DIRECTION('',(-0.892616653828,0.,-0.450816491833));
#562 = DIRECTION('',(-0.,-1.,-0.));
#563 = ADVANCED_FACE('',(#564),#589,.T.);
#564 = FACE_BOUND('',#565,.T.);
#565 = EDGE_LOOP('',(#566,#574,#582,#588));
#566 = ORIENTED_EDGE('',*,*,#567,.T.);
#567 = EDGE_CURVE('',#127,#568,#570,.T.);
#568 = VERTEX_POINT('',#569);
#569 = CARTESIAN_POINT('',(-59.58175457229,-66.88303429296,-1.));
#570 = LINE('',#571,#572);
#571 = CARTESIAN_POINT('',(-59.58175457229,-66.88303429296,0.));
#572 = VECTOR('',#573,1.);
#573 = DIRECTION('',(-0.,-0.,-1.));
#574 = ORIENTED_EDGE('',*,*,#575,.T.);
#575 = EDGE_CURVE('',#568,#576,#578,.T.);
#576 = VERTEX_POINT('',#577);
#577 = CARTESIAN_POINT('',(61.883034292965,-66.88303429296,-1.));
#578 = LINE('',#579,#580);
#579 = CARTESIAN_POINT('',(-59.58175457229,-66.88303429296,-1.));
#580 = VECTOR('',#581,1.);
#581 = DIRECTION('',(1.,0.,0.));
#582 = ORIENTED_EDGE('',*,*,#583,.F.);
#583 = EDGE_CURVE('',#129,#576,#584,.T.);
#584 = LINE('',#585,#586);
#585 = CARTESIAN_POINT('',(61.883034292965,-66.88303429296,0.));
#586 = VECTOR('',#587,1.);
#587 = DIRECTION('',(-0.,-0.,-1.));
#588 = ORIENTED_EDGE('',*,*,#126,.F.);
#589 = PLANE('',#590);
#590 = AXIS2_PLACEMENT_3D('',#591,#592,#593);
#591 = CARTESIAN_POINT('',(-59.58175457229,-66.88303429296,0.));
#592 = DIRECTION('',(0.,-1.,0.));
#593 = DIRECTION('',(1.,0.,0.));
#594 = ADVANCED_FACE('',(#595),#614,.T.);
#595 = FACE_BOUND('',#596,.T.);
#596 = EDGE_LOOP('',(#597,#605,#612,#613));
#597 = ORIENTED_EDGE('',*,*,#598,.T.);
#598 = EDGE_CURVE('',#180,#599,#601,.T.);
#599 = VERTEX_POINT('',#600);
#600 = CARTESIAN_POINT('',(-64.58175457229,-61.88303429296,-1.));
#601 = LINE('',#602,#603);
#602 = CARTESIAN_POINT('',(-64.58175457229,-61.88303429296,0.));
#603 = VECTOR('',#604,1.);
#604 = DIRECTION('',(-0.,-0.,-1.));
#605 = ORIENTED_EDGE('',*,*,#606,.T.);
#606 = EDGE_CURVE('',#599,#568,#607,.T.);
#607 = CIRCLE('',#608,5.);
#608 = AXIS2_PLACEMENT_3D('',#609,#610,#611);
#609 = CARTESIAN_POINT('',(-59.58175457229,-61.88303429296,-1.));
#610 = DIRECTION('',(0.,0.,1.));
#611 = DIRECTION('',(1.,0.,0.));
#612 = ORIENTED_EDGE('',*,*,#567,.F.);
#613 = ORIENTED_EDGE('',*,*,#187,.F.);
#614 = CYLINDRICAL_SURFACE('',#615,5.);
#615 = AXIS2_PLACEMENT_3D('',#616,#617,#618);
#616 = CARTESIAN_POINT('',(-59.58175457229,-61.88303429296,0.));
#617 = DIRECTION('',(0.,0.,1.));
#618 = DIRECTION('',(1.,0.,0.));
#619 = ADVANCED_FACE('',(#620),#639,.T.);
#620 = FACE_BOUND('',#621,.T.);
#621 = EDGE_LOOP('',(#622,#623,#632,#638));
#622 = ORIENTED_EDGE('',*,*,#583,.T.);
#623 = ORIENTED_EDGE('',*,*,#624,.T.);
#624 = EDGE_CURVE('',#576,#625,#627,.T.);
#625 = VERTEX_POINT('',#626);
#626 = CARTESIAN_POINT('',(66.883034292965,-61.88303429296,-1.));
#627 = CIRCLE('',#628,5.);
#628 = AXIS2_PLACEMENT_3D('',#629,#630,#631);
#629 = CARTESIAN_POINT('',(61.883034292965,-61.88303429296,-1.));
#630 = DIRECTION('',(0.,0.,1.));
#631 = DIRECTION('',(1.,0.,0.));
#632 = ORIENTED_EDGE('',*,*,#633,.F.);
#633 = EDGE_CURVE('',#137,#625,#634,.T.);
#634 = LINE('',#635,#636);
#635 = CARTESIAN_POINT('',(66.883034292965,-61.88303429296,0.));
#636 = VECTOR('',#637,1.);
#637 = DIRECTION('',(-0.,-0.,-1.));
#638 = ORIENTED_EDGE('',*,*,#136,.F.);
#639 = CYLINDRICAL_SURFACE('',#640,5.);
#640 = AXIS2_PLACEMENT_3D('',#641,#642,#643);
#641 = CARTESIAN_POINT('',(61.883034292965,-61.88303429296,0.));
#642 = DIRECTION('',(0.,0.,1.));
#643 = DIRECTION('',(1.,0.,0.));
#644 = ADVANCED_FACE('',(#645),#663,.T.);
#645 = FACE_BOUND('',#646,.T.);
#646 = EDGE_LOOP('',(#647,#655,#661,#662));
#647 = ORIENTED_EDGE('',*,*,#648,.T.);
#648 = EDGE_CURVE('',#171,#649,#651,.T.);
#649 = VERTEX_POINT('',#650);
#650 = CARTESIAN_POINT('',(-64.58175457229,8.03,-1.));
#651 = LINE('',#652,#653);
#652 = CARTESIAN_POINT('',(-64.58175457229,8.03,0.));
#653 = VECTOR('',#654,1.);
#654 = DIRECTION('',(-0.,-0.,-1.));
#655 = ORIENTED_EDGE('',*,*,#656,.T.);
#656 = EDGE_CURVE('',#649,#599,#657,.T.);
#657 = LINE('',#658,#659);
#658 = CARTESIAN_POINT('',(-64.58175457229,8.03,-1.));
#659 = VECTOR('',#660,1.);
#660 = DIRECTION('',(0.,-1.,0.));
#661 = ORIENTED_EDGE('',*,*,#598,.F.);
#662 = ORIENTED_EDGE('',*,*,#179,.F.);
#663 = PLANE('',#664);
#664 = AXIS2_PLACEMENT_3D('',#665,#666,#667);
#665 = CARTESIAN_POINT('',(-64.58175457229,8.03,0.));
#666 = DIRECTION('',(-1.,0.,0.));
#667 = DIRECTION('',(0.,-1.,0.));
#668 = ADVANCED_FACE('',(#669),#687,.T.);
#669 = FACE_BOUND('',#670,.T.);
#670 = EDGE_LOOP('',(#671,#672,#680,#686));
#671 = ORIENTED_EDGE('',*,*,#633,.T.);
#672 = ORIENTED_EDGE('',*,*,#673,.T.);
#673 = EDGE_CURVE('',#625,#674,#676,.T.);
#674 = VERTEX_POINT('',#675);
#675 = CARTESIAN_POINT('',(66.883034292965,8.03,-1.));
#676 = LINE('',#677,#678);
#677 = CARTESIAN_POINT('',(66.883034292965,-61.88303429296,-1.));
#678 = VECTOR('',#679,1.);
#679 = DIRECTION('',(0.,1.,0.));
#680 = ORIENTED_EDGE('',*,*,#681,.F.);
#681 = EDGE_CURVE('',#146,#674,#682,.T.);
#682 = LINE('',#683,#684);
#683 = CARTESIAN_POINT('',(66.883034292965,8.03,0.));
#684 = VECTOR('',#685,1.);
#685 = DIRECTION('',(-0.,-0.,-1.));
#686 = ORIENTED_EDGE('',*,*,#145,.F.);
#687 = PLANE('',#688);
#688 = AXIS2_PLACEMENT_3D('',#689,#690,#691);
#689 = CARTESIAN_POINT('',(66.883034292965,-61.88303429296,0.));
#690 = DIRECTION('',(1.,0.,0.));
#691 = DIRECTION('',(0.,1.,0.));
#692 = ADVANCED_FACE('',(#693),#712,.T.);
#693 = FACE_BOUND('',#694,.T.);
#694 = EDGE_LOOP('',(#695,#703,#710,#711));
#695 = ORIENTED_EDGE('',*,*,#696,.T.);
#696 = EDGE_CURVE('',#163,#697,#699,.T.);
#697 = VERTEX_POINT('',#698);
#698 = CARTESIAN_POINT('',(-59.58175457229,13.03,-1.));
#699 = LINE('',#700,#701);
#700 = CARTESIAN_POINT('',(-59.58175457229,13.03,0.));
#701 = VECTOR('',#702,1.);
#702 = DIRECTION('',(-0.,-0.,-1.));
#703 = ORIENTED_EDGE('',*,*,#704,.T.);
#704 = EDGE_CURVE('',#697,#649,#705,.T.);
#705 = CIRCLE('',#706,5.);
#706 = AXIS2_PLACEMENT_3D('',#707,#708,#709);
#707 = CARTESIAN_POINT('',(-59.58175457229,8.03,-1.));
#708 = DIRECTION('',(0.,0.,1.));
#709 = DIRECTION('',(1.,0.,0.));
#710 = ORIENTED_EDGE('',*,*,#648,.F.);
#711 = ORIENTED_EDGE('',*,*,#170,.F.);
#712 = CYLINDRICAL_SURFACE('',#713,5.);
#713 = AXIS2_PLACEMENT_3D('',#714,#715,#716);
#714 = CARTESIAN_POINT('',(-59.58175457229,8.03,0.));
#715 = DIRECTION('',(0.,0.,1.));
#716 = DIRECTION('',(1.,0.,0.));
#717 = ADVANCED_FACE('',(#718),#737,.T.);
#718 = FACE_BOUND('',#719,.T.);
#719 = EDGE_LOOP('',(#720,#721,#730,#736));
#720 = ORIENTED_EDGE('',*,*,#681,.T.);
#721 = ORIENTED_EDGE('',*,*,#722,.T.);
#722 = EDGE_CURVE('',#674,#723,#725,.T.);
#723 = VERTEX_POINT('',#724);
#724 = CARTESIAN_POINT('',(61.883034292965,13.03,-1.));
#725 = CIRCLE('',#726,5.);
#726 = AXIS2_PLACEMENT_3D('',#727,#728,#729);
#727 = CARTESIAN_POINT('',(61.883034292965,8.03,-1.));
#728 = DIRECTION('',(0.,0.,1.));
#729 = DIRECTION('',(1.,0.,0.));
#730 = ORIENTED_EDGE('',*,*,#731,.F.);
#731 = EDGE_CURVE('',#154,#723,#732,.T.);
#732 = LINE('',#733,#734);
#733 = CARTESIAN_POINT('',(61.883034292965,13.03,0.));
#734 = VECTOR('',#735,1.);
#735 = DIRECTION('',(-0.,-0.,-1.));
#736 = ORIENTED_EDGE('',*,*,#153,.F.);
#737 = CYLINDRICAL_SURFACE('',#738,5.);
#738 = AXIS2_PLACEMENT_3D('',#739,#740,#741);
#739 = CARTESIAN_POINT('',(61.883034292965,8.03,0.));
#740 = DIRECTION('',(0.,0.,1.));
#741 = DIRECTION('',(1.,0.,0.));
#742 = ADVANCED_FACE('',(#743),#754,.T.);
#743 = FACE_BOUND('',#744,.T.);
#744 = EDGE_LOOP('',(#745,#746,#752,#753));
#745 = ORIENTED_EDGE('',*,*,#731,.T.);
#746 = ORIENTED_EDGE('',*,*,#747,.T.);
#747 = EDGE_CURVE('',#723,#697,#748,.T.);
#748 = LINE('',#749,#750);
#749 = CARTESIAN_POINT('',(61.883034292965,13.03,-1.));
#750 = VECTOR('',#751,1.);
#751 = DIRECTION('',(-1.,0.,0.));
#752 = ORIENTED_EDGE('',*,*,#696,.F.);
#753 = ORIENTED_EDGE('',*,*,#162,.F.);
#754 = PLANE('',#755);
#755 = AXIS2_PLACEMENT_3D('',#756,#757,#758);
#756 = CARTESIAN_POINT('',(61.883034292965,13.03,0.));
#757 = DIRECTION('',(0.,1.,0.));
#758 = DIRECTION('',(-1.,0.,0.));
#759 = ADVANCED_FACE('',(#760),#779,.T.);
#760 = FACE_BOUND('',#761,.F.);
#761 = EDGE_LOOP('',(#762,#763,#772,#778));
#762 = ORIENTED_EDGE('',*,*,#264,.T.);
#763 = ORIENTED_EDGE('',*,*,#764,.T.);
#764 = EDGE_CURVE('',#257,#765,#767,.T.);
#765 = VERTEX_POINT('',#766);
#766 = CARTESIAN_POINT('',(61.883034292965,11.53,1.E-02));
#767 = CIRCLE('',#768,3.5);
#768 = AXIS2_PLACEMENT_3D('',#769,#770,#771);
#769 = CARTESIAN_POINT('',(61.883034292965,8.03,1.E-02));
#770 = DIRECTION('',(0.,0.,1.));
#771 = DIRECTION('',(1.,0.,0.));
#772 = ORIENTED_EDGE('',*,*,#773,.F.);
#773 = EDGE_CURVE('',#225,#765,#774,.T.);
#774 = LINE('',#775,#776);
#775 = CARTESIAN_POINT('',(61.883034292965,11.53,0.));
#776 = VECTOR('',#777,1.);
#777 = DIRECTION('',(0.,0.,1.));
#778 = ORIENTED_EDGE('',*,*,#232,.F.);
#779 = CYLINDRICAL_SURFACE('',#780,3.5);
#780 = AXIS2_PLACEMENT_3D('',#781,#782,#783);
#781 = CARTESIAN_POINT('',(61.883034292965,8.03,0.));
#782 = DIRECTION('',(-0.,-0.,-1.));
#783 = DIRECTION('',(1.,0.,0.));
#784 = ADVANCED_FACE('',(#785),#803,.F.);
#785 = FACE_BOUND('',#786,.F.);
#786 = EDGE_LOOP('',(#787,#788,#796,#802));
#787 = ORIENTED_EDGE('',*,*,#773,.T.);
#788 = ORIENTED_EDGE('',*,*,#789,.T.);
#789 = EDGE_CURVE('',#765,#790,#792,.T.);
#790 = VERTEX_POINT('',#791);
#791 = CARTESIAN_POINT('',(-59.58175457229,11.53,1.E-02));
#792 = LINE('',#793,#794);
#793 = CARTESIAN_POINT('',(61.883034292965,11.53,1.E-02));
#794 = VECTOR('',#795,1.);
#795 = DIRECTION('',(-1.,0.,0.));
#796 = ORIENTED_EDGE('',*,*,#797,.F.);
#797 = EDGE_CURVE('',#216,#790,#798,.T.);
#798 = LINE('',#799,#800);
#799 = CARTESIAN_POINT('',(-59.58175457229,11.53,0.));
#800 = VECTOR('',#801,1.);
#801 = DIRECTION('',(0.,0.,1.));
#802 = ORIENTED_EDGE('',*,*,#224,.F.);
#803 = PLANE('',#804);
#804 = AXIS2_PLACEMENT_3D('',#805,#806,#807);
#805 = CARTESIAN_POINT('',(61.883034292965,11.53,0.));
#806 = DIRECTION('',(0.,-1.,0.));
#807 = DIRECTION('',(-1.,0.,0.));
#808 = ADVANCED_FACE('',(#809),#828,.T.);
#809 = FACE_BOUND('',#810,.F.);
#810 = EDGE_LOOP('',(#811,#812,#821,#827));
#811 = ORIENTED_EDGE('',*,*,#797,.T.);
#812 = ORIENTED_EDGE('',*,*,#813,.T.);
#813 = EDGE_CURVE('',#790,#814,#816,.T.);
#814 = VERTEX_POINT('',#815);
#815 = CARTESIAN_POINT('',(-63.08175457229,8.03,1.E-02));
#816 = CIRCLE('',#817,3.5);
#817 = AXIS2_PLACEMENT_3D('',#818,#819,#820);
#818 = CARTESIAN_POINT('',(-59.58175457229,8.03,1.E-02));
#819 = DIRECTION('',(0.,-0.,1.));
#820 = DIRECTION('',(0.,1.,0.));
#821 = ORIENTED_EDGE('',*,*,#822,.F.);
#822 = EDGE_CURVE('',#208,#814,#823,.T.);
#823 = LINE('',#824,#825);
#824 = CARTESIAN_POINT('',(-63.08175457229,8.03,0.));
#825 = VECTOR('',#826,1.);
#826 = DIRECTION('',(0.,0.,1.));
#827 = ORIENTED_EDGE('',*,*,#215,.F.);
#828 = CYLINDRICAL_SURFACE('',#829,3.5);
#829 = AXIS2_PLACEMENT_3D('',#830,#831,#832);
#830 = CARTESIAN_POINT('',(-59.58175457229,8.03,0.));
#831 = DIRECTION('',(-0.,-0.,-1.));
#832 = DIRECTION('',(1.,0.,0.));
#833 = ADVANCED_FACE('',(#834),#845,.F.);
#834 = FACE_BOUND('',#835,.F.);
#835 = EDGE_LOOP('',(#836,#837,#843,#844));
#836 = ORIENTED_EDGE('',*,*,#822,.T.);
#837 = ORIENTED_EDGE('',*,*,#838,.T.);
#838 = EDGE_CURVE('',#814,#280,#839,.T.);
#839 = LINE('',#840,#841);
#840 = CARTESIAN_POINT('',(-63.08175457229,8.03,1.E-02));
#841 = VECTOR('',#842,1.);
#842 = DIRECTION('',(0.,-1.,0.));
#843 = ORIENTED_EDGE('',*,*,#279,.F.);
#844 = ORIENTED_EDGE('',*,*,#207,.F.);
#845 = PLANE('',#846);
#846 = AXIS2_PLACEMENT_3D('',#847,#848,#849);
#847 = CARTESIAN_POINT('',(-63.08175457229,8.03,0.));
#848 = DIRECTION('',(1.,0.,0.));
#849 = DIRECTION('',(0.,-1.,0.));
#850 = ADVANCED_FACE('',(#851),#862,.T.);
#851 = FACE_BOUND('',#852,.T.);
#852 = EDGE_LOOP('',(#853,#859,#860,#861));
#853 = ORIENTED_EDGE('',*,*,#854,.F.);
#854 = EDGE_CURVE('',#280,#363,#855,.T.);
#855 = LINE('',#856,#857);
#856 = CARTESIAN_POINT('',(-62.83175457229,-61.88303429296,0.505));
#857 = VECTOR('',#858,1.);
#858 = DIRECTION('',(0.450816491833,0.,0.892616653828));
#859 = ORIENTED_EDGE('',*,*,#287,.T.);
#860 = ORIENTED_EDGE('',*,*,#304,.T.);
#861 = ORIENTED_EDGE('',*,*,#370,.F.);
#862 = CONICAL_SURFACE('',#863,3.5,0.467679845212);
#863 = AXIS2_PLACEMENT_3D('',#864,#865,#866);
#864 = CARTESIAN_POINT('',(-59.58175457229,-61.88303429296,1.E-02));
#865 = DIRECTION('',(-0.,-0.,-1.));
#866 = DIRECTION('',(-1.,0.,0.));
#867 = ADVANCED_FACE('',(#868),#879,.T.);
#868 = FACE_BOUND('',#869,.T.);
#869 = EDGE_LOOP('',(#870,#871,#872,#878));
#870 = ORIENTED_EDGE('',*,*,#552,.F.);
#871 = ORIENTED_EDGE('',*,*,#764,.T.);
#872 = ORIENTED_EDGE('',*,*,#873,.T.);
#873 = EDGE_CURVE('',#765,#337,#874,.T.);
#874 = LINE('',#875,#876);
#875 = CARTESIAN_POINT('',(61.883034292965,11.53,1.E-02));
#876 = VECTOR('',#877,1.);
#877 = DIRECTION('',(-2.278072883316E-16,-0.450816491833,0.892616653828)
  );
#878 = ORIENTED_EDGE('',*,*,#336,.F.);
#879 = CONICAL_SURFACE('',#880,3.5,0.467679845212);
#880 = AXIS2_PLACEMENT_3D('',#881,#882,#883);
#881 = CARTESIAN_POINT('',(61.883034292965,8.03,1.E-02));
#882 = DIRECTION('',(-0.,-0.,-1.));
#883 = DIRECTION('',(1.,0.,0.));
#884 = ADVANCED_FACE('',(#885),#896,.F.);
#885 = FACE_BOUND('',#886,.T.);
#886 = EDGE_LOOP('',(#887,#888,#889,#895));
#887 = ORIENTED_EDGE('',*,*,#873,.F.);
#888 = ORIENTED_EDGE('',*,*,#789,.T.);
#889 = ORIENTED_EDGE('',*,*,#890,.T.);
#890 = EDGE_CURVE('',#790,#346,#891,.T.);
#891 = LINE('',#892,#893);
#892 = CARTESIAN_POINT('',(-59.58175457229,11.28,0.505));
#893 = VECTOR('',#894,1.);
#894 = DIRECTION('',(0.,-0.450816491833,0.892616653828));
#895 = ORIENTED_EDGE('',*,*,#345,.F.);
#896 = PLANE('',#897);
#897 = AXIS2_PLACEMENT_3D('',#898,#899,#900);
#898 = CARTESIAN_POINT('',(61.883034292965,11.28,0.505));
#899 = DIRECTION('',(0.,-0.892616653828,-0.450816491833));
#900 = DIRECTION('',(1.,0.,0.));
#901 = ADVANCED_FACE('',(#902),#913,.T.);
#902 = FACE_BOUND('',#903,.T.);
#903 = EDGE_LOOP('',(#904,#905,#906,#912));
#904 = ORIENTED_EDGE('',*,*,#890,.F.);
#905 = ORIENTED_EDGE('',*,*,#813,.T.);
#906 = ORIENTED_EDGE('',*,*,#907,.T.);
#907 = EDGE_CURVE('',#814,#354,#908,.T.);
#908 = LINE('',#909,#910);
#909 = CARTESIAN_POINT('',(-63.08175457229,8.03,1.E-02));
#910 = VECTOR('',#911,1.);
#911 = DIRECTION('',(0.450816491833,-2.760454868628E-17,0.892616653828)
  );
#912 = ORIENTED_EDGE('',*,*,#353,.F.);
#913 = CONICAL_SURFACE('',#914,3.5,0.467679845212);
#914 = AXIS2_PLACEMENT_3D('',#915,#916,#917);
#915 = CARTESIAN_POINT('',(-59.58175457229,8.03,1.E-02));
#916 = DIRECTION('',(-0.,-0.,-1.));
#917 = DIRECTION('',(0.,1.,0.));
#918 = ADVANCED_FACE('',(#919),#925,.F.);
#919 = FACE_BOUND('',#920,.T.);
#920 = EDGE_LOOP('',(#921,#922,#923,#924));
#921 = ORIENTED_EDGE('',*,*,#907,.F.);
#922 = ORIENTED_EDGE('',*,*,#838,.T.);
#923 = ORIENTED_EDGE('',*,*,#854,.T.);
#924 = ORIENTED_EDGE('',*,*,#362,.F.);
#925 = PLANE('',#926);
#926 = AXIS2_PLACEMENT_3D('',#927,#928,#929);
#927 = CARTESIAN_POINT('',(-62.83175457229,8.03,0.505));
#928 = DIRECTION('',(0.892616653828,0.,-0.450816491833));
#929 = DIRECTION('',(0.,1.,0.));
#930 = ADVANCED_FACE('',(#931),#950,.F.);
#931 = FACE_BOUND('',#932,.F.);
#932 = EDGE_LOOP('',(#933,#934,#942,#949));
#933 = ORIENTED_EDGE('',*,*,#381,.F.);
#934 = ORIENTED_EDGE('',*,*,#935,.T.);
#935 = EDGE_CURVE('',#382,#936,#938,.T.);
#936 = VERTEX_POINT('',#937);
#937 = CARTESIAN_POINT('',(-58.03175457229,-61.88303429296,-1.));
#938 = LINE('',#939,#940);
#939 = CARTESIAN_POINT('',(-58.03175457229,-61.88303429296,
    155.39920445388));
#940 = VECTOR('',#941,1.);
#941 = DIRECTION('',(-0.,-0.,-1.));
#942 = ORIENTED_EDGE('',*,*,#943,.T.);
#943 = EDGE_CURVE('',#936,#936,#944,.T.);
#944 = CIRCLE('',#945,1.55);
#945 = AXIS2_PLACEMENT_3D('',#946,#947,#948);
#946 = CARTESIAN_POINT('',(-59.58175457229,-61.88303429296,-1.));
#947 = DIRECTION('',(0.,0.,1.));
#948 = DIRECTION('',(1.,0.,0.));
#949 = ORIENTED_EDGE('',*,*,#935,.F.);
#950 = CYLINDRICAL_SURFACE('',#951,1.55);
#951 = AXIS2_PLACEMENT_3D('',#952,#953,#954);
#952 = CARTESIAN_POINT('',(-59.58175457229,-61.88303429296,
    155.39920445388));
#953 = DIRECTION('',(0.,0.,1.));
#954 = DIRECTION('',(1.,0.,0.));
#955 = ADVANCED_FACE('',(#956),#975,.F.);
#956 = FACE_BOUND('',#957,.F.);
#957 = EDGE_LOOP('',(#958,#959,#967,#974));
#958 = ORIENTED_EDGE('',*,*,#392,.F.);
#959 = ORIENTED_EDGE('',*,*,#960,.T.);
#960 = EDGE_CURVE('',#393,#961,#963,.T.);
#961 = VERTEX_POINT('',#962);
#962 = CARTESIAN_POINT('',(1.55,-61.88303429296,-1.));
#963 = LINE('',#964,#965);
#964 = CARTESIAN_POINT('',(1.55,-61.88303429296,155.39920445388));
#965 = VECTOR('',#966,1.);
#966 = DIRECTION('',(-0.,-0.,-1.));
#967 = ORIENTED_EDGE('',*,*,#968,.T.);
#968 = EDGE_CURVE('',#961,#961,#969,.T.);
#969 = CIRCLE('',#970,1.55);
#970 = AXIS2_PLACEMENT_3D('',#971,#972,#973);
#971 = CARTESIAN_POINT('',(0.,-61.88303429296,-1.));
#972 = DIRECTION('',(0.,0.,1.));
#973 = DIRECTION('',(1.,0.,0.));
#974 = ORIENTED_EDGE('',*,*,#960,.F.);
#975 = CYLINDRICAL_SURFACE('',#976,1.55);
#976 = AXIS2_PLACEMENT_3D('',#977,#978,#979);
#977 = CARTESIAN_POINT('',(0.,-61.88303429296,155.39920445388));
#978 = DIRECTION('',(0.,0.,1.));
#979 = DIRECTION('',(1.,0.,0.));
#980 = ADVANCED_FACE('',(#981),#1000,.F.);
#981 = FACE_BOUND('',#982,.F.);
#982 = EDGE_LOOP('',(#983,#984,#992,#999));
#983 = ORIENTED_EDGE('',*,*,#403,.F.);
#984 = ORIENTED_EDGE('',*,*,#985,.T.);
#985 = EDGE_CURVE('',#404,#986,#988,.T.);
#986 = VERTEX_POINT('',#987);
#987 = CARTESIAN_POINT('',(63.433034292965,-61.88303429296,-1.));
#988 = LINE('',#989,#990);
#989 = CARTESIAN_POINT('',(63.433034292965,-61.88303429296,
    155.39920445388));
#990 = VECTOR('',#991,1.);
#991 = DIRECTION('',(-0.,-0.,-1.));
#992 = ORIENTED_EDGE('',*,*,#993,.T.);
#993 = EDGE_CURVE('',#986,#986,#994,.T.);
#994 = CIRCLE('',#995,1.55);
#995 = AXIS2_PLACEMENT_3D('',#996,#997,#998);
#996 = CARTESIAN_POINT('',(61.883034292965,-61.88303429296,-1.));
#997 = DIRECTION('',(0.,0.,1.));
#998 = DIRECTION('',(1.,0.,0.));
#999 = ORIENTED_EDGE('',*,*,#985,.F.);
#1000 = CYLINDRICAL_SURFACE('',#1001,1.55);
#1001 = AXIS2_PLACEMENT_3D('',#1002,#1003,#1004);
#1002 = CARTESIAN_POINT('',(61.883034292965,-61.88303429296,
    155.39920445388));
#1003 = DIRECTION('',(0.,0.,1.));
#1004 = DIRECTION('',(1.,0.,0.));
#1005 = ADVANCED_FACE('',(#1006),#1032,.F.);
#1006 = FACE_BOUND('',#1007,.F.);
#1007 = EDGE_LOOP('',(#1008,#1009,#1017,#1026));
#1008 = ORIENTED_EDGE('',*,*,#414,.F.);
#1009 = ORIENTED_EDGE('',*,*,#1010,.T.);
#1010 = EDGE_CURVE('',#415,#1011,#1013,.T.);
#1011 = VERTEX_POINT('',#1012);
#1012 = CARTESIAN_POINT('',(-52.75226149024,-50.94499721745,-1.));
#1013 = LINE('',#1014,#1015);
#1014 = CARTESIAN_POINT('',(-52.75226149024,-50.94499721745,1.));
#1015 = VECTOR('',#1016,1.);
#1016 = DIRECTION('',(-0.,-0.,-1.));
#1017 = ORIENTED_EDGE('',*,*,#1018,.T.);
#1018 = EDGE_CURVE('',#1011,#1019,#1021,.T.);
#1019 = VERTEX_POINT('',#1020);
#1020 = CARTESIAN_POINT('',(-50.41124765434,-52.82107136847,-1.));
#1021 = CIRCLE('',#1022,1.5);
#1022 = AXIS2_PLACEMENT_3D('',#1023,#1024,#1025);
#1023 = CARTESIAN_POINT('',(-51.58175457229,-51.88303429296,-1.));
#1024 = DIRECTION('',(0.,0.,1.));
#1025 = DIRECTION('',(1.,0.,0.));
#1026 = ORIENTED_EDGE('',*,*,#1027,.F.);
#1027 = EDGE_CURVE('',#417,#1019,#1028,.T.);
#1028 = LINE('',#1029,#1030);
#1029 = CARTESIAN_POINT('',(-50.41124765434,-52.82107136847,1.));
#1030 = VECTOR('',#1031,1.);
#1031 = DIRECTION('',(-0.,-0.,-1.));
#1032 = CYLINDRICAL_SURFACE('',#1033,1.5);
#1033 = AXIS2_PLACEMENT_3D('',#1034,#1035,#1036);
#1034 = CARTESIAN_POINT('',(-51.58175457229,-51.88303429296,1.));
#1035 = DIRECTION('',(0.,0.,1.));
#1036 = DIRECTION('',(1.,0.,0.));
#1037 = ADVANCED_FACE('',(#1038),#1056,.F.);
#1038 = FACE_BOUND('',#1039,.F.);
#1039 = EDGE_LOOP('',(#1040,#1041,#1042,#1050));
#1040 = ORIENTED_EDGE('',*,*,#442,.F.);
#1041 = ORIENTED_EDGE('',*,*,#1027,.T.);
#1042 = ORIENTED_EDGE('',*,*,#1043,.T.);
#1043 = EDGE_CURVE('',#1019,#1044,#1046,.T.);
#1044 = VERTEX_POINT('',#1045);
#1045 = CARTESIAN_POINT('',(-10.41124765434,-2.90803707551,-1.));
#1046 = LINE('',#1047,#1048);
#1047 = CARTESIAN_POINT('',(-34.01087486548,-32.35626213277,-1.));
#1048 = VECTOR('',#1049,1.);
#1049 = DIRECTION('',(0.62535805034,0.7803379453,0.));
#1050 = ORIENTED_EDGE('',*,*,#1051,.F.);
#1051 = EDGE_CURVE('',#434,#1044,#1052,.T.);
#1052 = LINE('',#1053,#1054);
#1053 = CARTESIAN_POINT('',(-10.41124765434,-2.90803707551,1.));
#1054 = VECTOR('',#1055,1.);
#1055 = DIRECTION('',(-0.,-0.,-1.));
#1056 = PLANE('',#1057);
#1057 = AXIS2_PLACEMENT_3D('',#1058,#1059,#1060);
#1058 = CARTESIAN_POINT('',(-50.41124765434,-52.82107136847,1.));
#1059 = DIRECTION('',(0.7803379453,-0.62535805034,0.));
#1060 = DIRECTION('',(0.62535805034,0.7803379453,0.));
#1061 = ADVANCED_FACE('',(#1062),#1081,.F.);
#1062 = FACE_BOUND('',#1063,.F.);
#1063 = EDGE_LOOP('',(#1064,#1065,#1066,#1075));
#1064 = ORIENTED_EDGE('',*,*,#433,.F.);
#1065 = ORIENTED_EDGE('',*,*,#1051,.T.);
#1066 = ORIENTED_EDGE('',*,*,#1067,.T.);
#1067 = EDGE_CURVE('',#1044,#1068,#1070,.T.);
#1068 = VERTEX_POINT('',#1069);
#1069 = CARTESIAN_POINT('',(-12.75226149024,-1.03196292449,-1.));
#1070 = CIRCLE('',#1071,1.5);
#1071 = AXIS2_PLACEMENT_3D('',#1072,#1073,#1074);
#1072 = CARTESIAN_POINT('',(-11.58175457229,-1.97,-1.));
#1073 = DIRECTION('',(0.,0.,1.));
#1074 = DIRECTION('',(1.,0.,0.));
#1075 = ORIENTED_EDGE('',*,*,#1076,.F.);
#1076 = EDGE_CURVE('',#426,#1068,#1077,.T.);
#1077 = LINE('',#1078,#1079);
#1078 = CARTESIAN_POINT('',(-12.75226149024,-1.03196292449,1.));
#1079 = VECTOR('',#1080,1.);
#1080 = DIRECTION('',(-0.,-0.,-1.));
#1081 = CYLINDRICAL_SURFACE('',#1082,1.5);
#1082 = AXIS2_PLACEMENT_3D('',#1083,#1084,#1085);
#1083 = CARTESIAN_POINT('',(-11.58175457229,-1.97,1.));
#1084 = DIRECTION('',(0.,0.,1.));
#1085 = DIRECTION('',(1.,0.,0.));
#1086 = ADVANCED_FACE('',(#1087),#1098,.T.);
#1087 = FACE_BOUND('',#1088,.T.);
#1088 = EDGE_LOOP('',(#1089,#1090,#1091,#1097));
#1089 = ORIENTED_EDGE('',*,*,#425,.F.);
#1090 = ORIENTED_EDGE('',*,*,#1010,.T.);
#1091 = ORIENTED_EDGE('',*,*,#1092,.T.);
#1092 = EDGE_CURVE('',#1011,#1068,#1093,.T.);
#1093 = LINE('',#1094,#1095);
#1094 = CARTESIAN_POINT('',(-36.35188870138,-30.48018798175,-1.));
#1095 = VECTOR('',#1096,1.);
#1096 = DIRECTION('',(0.62535805034,0.7803379453,0.));
#1097 = ORIENTED_EDGE('',*,*,#1076,.F.);
#1098 = PLANE('',#1099);
#1099 = AXIS2_PLACEMENT_3D('',#1100,#1101,#1102);
#1100 = CARTESIAN_POINT('',(-52.75226149024,-50.94499721745,1.));
#1101 = DIRECTION('',(0.7803379453,-0.62535805034,0.));
#1102 = DIRECTION('',(0.62535805034,0.7803379453,0.));
#1103 = ADVANCED_FACE('',(#1104),#1130,.F.);
#1104 = FACE_BOUND('',#1105,.F.);
#1105 = EDGE_LOOP('',(#1106,#1107,#1115,#1124));
#1106 = ORIENTED_EDGE('',*,*,#450,.F.);
#1107 = ORIENTED_EDGE('',*,*,#1108,.T.);
#1108 = EDGE_CURVE('',#451,#1109,#1111,.T.);
#1109 = VERTEX_POINT('',#1110);
#1110 = CARTESIAN_POINT('',(-40.75226149024,-50.94499721745,-1.));
#1111 = LINE('',#1112,#1113);
#1112 = CARTESIAN_POINT('',(-40.75226149024,-50.94499721745,1.));
#1113 = VECTOR('',#1114,1.);
#1114 = DIRECTION('',(-0.,-0.,-1.));
#1115 = ORIENTED_EDGE('',*,*,#1116,.T.);
#1116 = EDGE_CURVE('',#1109,#1117,#1119,.T.);
#1117 = VERTEX_POINT('',#1118);
#1118 = CARTESIAN_POINT('',(-38.41124765434,-52.82107136847,-1.));
#1119 = CIRCLE('',#1120,1.5);
#1120 = AXIS2_PLACEMENT_3D('',#1121,#1122,#1123);
#1121 = CARTESIAN_POINT('',(-39.58175457229,-51.88303429296,-1.));
#1122 = DIRECTION('',(0.,0.,1.));
#1123 = DIRECTION('',(1.,0.,0.));
#1124 = ORIENTED_EDGE('',*,*,#1125,.F.);
#1125 = EDGE_CURVE('',#453,#1117,#1126,.T.);
#1126 = LINE('',#1127,#1128);
#1127 = CARTESIAN_POINT('',(-38.41124765434,-52.82107136847,1.));
#1128 = VECTOR('',#1129,1.);
#1129 = DIRECTION('',(-0.,-0.,-1.));
#1130 = CYLINDRICAL_SURFACE('',#1131,1.5);
#1131 = AXIS2_PLACEMENT_3D('',#1132,#1133,#1134);
#1132 = CARTESIAN_POINT('',(-39.58175457229,-51.88303429296,1.));
#1133 = DIRECTION('',(0.,0.,1.));
#1134 = DIRECTION('',(1.,0.,0.));
#1135 = ADVANCED_FACE('',(#1136),#1154,.F.);
#1136 = FACE_BOUND('',#1137,.F.);
#1137 = EDGE_LOOP('',(#1138,#1139,#1140,#1148));
#1138 = ORIENTED_EDGE('',*,*,#478,.F.);
#1139 = ORIENTED_EDGE('',*,*,#1125,.T.);
#1140 = ORIENTED_EDGE('',*,*,#1141,.T.);
#1141 = EDGE_CURVE('',#1117,#1142,#1144,.T.);
#1142 = VERTEX_POINT('',#1143);
#1143 = CARTESIAN_POINT('',(1.588752345653,-2.90803707551,-1.));
#1144 = LINE('',#1145,#1146);
#1145 = CARTESIAN_POINT('',(-24.35731101223,-35.28420582924,-1.));
#1146 = VECTOR('',#1147,1.);
#1147 = DIRECTION('',(0.62535805034,0.7803379453,0.));
#1148 = ORIENTED_EDGE('',*,*,#1149,.F.);
#1149 = EDGE_CURVE('',#470,#1142,#1150,.T.);
#1150 = LINE('',#1151,#1152);
#1151 = CARTESIAN_POINT('',(1.588752345653,-2.90803707551,1.));
#1152 = VECTOR('',#1153,1.);
#1153 = DIRECTION('',(-0.,-0.,-1.));
#1154 = PLANE('',#1155);
#1155 = AXIS2_PLACEMENT_3D('',#1156,#1157,#1158);
#1156 = CARTESIAN_POINT('',(-38.41124765434,-52.82107136847,1.));
#1157 = DIRECTION('',(0.7803379453,-0.62535805034,0.));
#1158 = DIRECTION('',(0.62535805034,0.7803379453,0.));
#1159 = ADVANCED_FACE('',(#1160),#1179,.F.);
#1160 = FACE_BOUND('',#1161,.F.);
#1161 = EDGE_LOOP('',(#1162,#1163,#1164,#1173));
#1162 = ORIENTED_EDGE('',*,*,#469,.F.);
#1163 = ORIENTED_EDGE('',*,*,#1149,.T.);
#1164 = ORIENTED_EDGE('',*,*,#1165,.T.);
#1165 = EDGE_CURVE('',#1142,#1166,#1168,.T.);
#1166 = VERTEX_POINT('',#1167);
#1167 = CARTESIAN_POINT('',(-0.752261490247,-1.03196292449,-1.));
#1168 = CIRCLE('',#1169,1.5);
#1169 = AXIS2_PLACEMENT_3D('',#1170,#1171,#1172);
#1170 = CARTESIAN_POINT('',(0.418245427703,-1.97,-1.));
#1171 = DIRECTION('',(0.,0.,1.));
#1172 = DIRECTION('',(1.,0.,0.));
#1173 = ORIENTED_EDGE('',*,*,#1174,.F.);
#1174 = EDGE_CURVE('',#462,#1166,#1175,.T.);
#1175 = LINE('',#1176,#1177);
#1176 = CARTESIAN_POINT('',(-0.752261490247,-1.03196292449,1.));
#1177 = VECTOR('',#1178,1.);
#1178 = DIRECTION('',(-0.,-0.,-1.));
#1179 = CYLINDRICAL_SURFACE('',#1180,1.5);
#1180 = AXIS2_PLACEMENT_3D('',#1181,#1182,#1183);
#1181 = CARTESIAN_POINT('',(0.418245427703,-1.97,1.));
#1182 = DIRECTION('',(0.,0.,1.));
#1183 = DIRECTION('',(1.,0.,0.));
#1184 = ADVANCED_FACE('',(#1185),#1196,.T.);
#1185 = FACE_BOUND('',#1186,.T.);
#1186 = EDGE_LOOP('',(#1187,#1188,#1189,#1195));
#1187 = ORIENTED_EDGE('',*,*,#461,.F.);
#1188 = ORIENTED_EDGE('',*,*,#1108,.T.);
#1189 = ORIENTED_EDGE('',*,*,#1190,.T.);
#1190 = EDGE_CURVE('',#1109,#1166,#1191,.T.);
#1191 = LINE('',#1192,#1193);
#1192 = CARTESIAN_POINT('',(-26.69832484813,-33.40813167822,-1.));
#1193 = VECTOR('',#1194,1.);
#1194 = DIRECTION('',(0.62535805034,0.7803379453,0.));
#1195 = ORIENTED_EDGE('',*,*,#1174,.F.);
#1196 = PLANE('',#1197);
#1197 = AXIS2_PLACEMENT_3D('',#1198,#1199,#1200);
#1198 = CARTESIAN_POINT('',(-40.75226149024,-50.94499721745,1.));
#1199 = DIRECTION('',(0.7803379453,-0.62535805034,0.));
#1200 = DIRECTION('',(0.62535805034,0.7803379453,0.));
#1201 = ADVANCED_FACE('',(#1202),#1228,.F.);
#1202 = FACE_BOUND('',#1203,.F.);
#1203 = EDGE_LOOP('',(#1204,#1205,#1213,#1222));
#1204 = ORIENTED_EDGE('',*,*,#486,.F.);
#1205 = ORIENTED_EDGE('',*,*,#1206,.T.);
#1206 = EDGE_CURVE('',#487,#1207,#1209,.T.);
#1207 = VERTEX_POINT('',#1208);
#1208 = CARTESIAN_POINT('',(-28.75226149024,-50.94499721745,-1.));
#1209 = LINE('',#1210,#1211);
#1210 = CARTESIAN_POINT('',(-28.75226149024,-50.94499721745,1.));
#1211 = VECTOR('',#1212,1.);
#1212 = DIRECTION('',(-0.,-0.,-1.));
#1213 = ORIENTED_EDGE('',*,*,#1214,.T.);
#1214 = EDGE_CURVE('',#1207,#1215,#1217,.T.);
#1215 = VERTEX_POINT('',#1216);
#1216 = CARTESIAN_POINT('',(-26.41124765434,-52.82107136847,-1.));
#1217 = CIRCLE('',#1218,1.5);
#1218 = AXIS2_PLACEMENT_3D('',#1219,#1220,#1221);
#1219 = CARTESIAN_POINT('',(-27.58175457229,-51.88303429296,-1.));
#1220 = DIRECTION('',(0.,0.,1.));
#1221 = DIRECTION('',(1.,0.,0.));
#1222 = ORIENTED_EDGE('',*,*,#1223,.F.);
#1223 = EDGE_CURVE('',#489,#1215,#1224,.T.);
#1224 = LINE('',#1225,#1226);
#1225 = CARTESIAN_POINT('',(-26.41124765434,-52.82107136847,1.));
#1226 = VECTOR('',#1227,1.);
#1227 = DIRECTION('',(-0.,-0.,-1.));
#1228 = CYLINDRICAL_SURFACE('',#1229,1.5);
#1229 = AXIS2_PLACEMENT_3D('',#1230,#1231,#1232);
#1230 = CARTESIAN_POINT('',(-27.58175457229,-51.88303429296,1.));
#1231 = DIRECTION('',(0.,0.,1.));
#1232 = DIRECTION('',(1.,0.,0.));
#1233 = ADVANCED_FACE('',(#1234),#1252,.F.);
#1234 = FACE_BOUND('',#1235,.F.);
#1235 = EDGE_LOOP('',(#1236,#1237,#1238,#1246));
#1236 = ORIENTED_EDGE('',*,*,#514,.F.);
#1237 = ORIENTED_EDGE('',*,*,#1223,.T.);
#1238 = ORIENTED_EDGE('',*,*,#1239,.T.);
#1239 = EDGE_CURVE('',#1215,#1240,#1242,.T.);
#1240 = VERTEX_POINT('',#1241);
#1241 = CARTESIAN_POINT('',(13.588752345653,-2.90803707551,-1.));
#1242 = LINE('',#1243,#1244);
#1243 = CARTESIAN_POINT('',(-14.70374715898,-38.21214952572,-1.));
#1244 = VECTOR('',#1245,1.);
#1245 = DIRECTION('',(0.62535805034,0.7803379453,0.));
#1246 = ORIENTED_EDGE('',*,*,#1247,.F.);
#1247 = EDGE_CURVE('',#506,#1240,#1248,.T.);
#1248 = LINE('',#1249,#1250);
#1249 = CARTESIAN_POINT('',(13.588752345653,-2.90803707551,1.));
#1250 = VECTOR('',#1251,1.);
#1251 = DIRECTION('',(-0.,-0.,-1.));
#1252 = PLANE('',#1253);
#1253 = AXIS2_PLACEMENT_3D('',#1254,#1255,#1256);
#1254 = CARTESIAN_POINT('',(-26.41124765434,-52.82107136847,1.));
#1255 = DIRECTION('',(0.7803379453,-0.62535805034,0.));
#1256 = DIRECTION('',(0.62535805034,0.7803379453,0.));
#1257 = ADVANCED_FACE('',(#1258),#1277,.F.);
#1258 = FACE_BOUND('',#1259,.F.);
#1259 = EDGE_LOOP('',(#1260,#1261,#1262,#1271));
#1260 = ORIENTED_EDGE('',*,*,#505,.F.);
#1261 = ORIENTED_EDGE('',*,*,#1247,.T.);
#1262 = ORIENTED_EDGE('',*,*,#1263,.T.);
#1263 = EDGE_CURVE('',#1240,#1264,#1266,.T.);
#1264 = VERTEX_POINT('',#1265);
#1265 = CARTESIAN_POINT('',(11.247738509753,-1.03196292449,-1.));
#1266 = CIRCLE('',#1267,1.5);
#1267 = AXIS2_PLACEMENT_3D('',#1268,#1269,#1270);
#1268 = CARTESIAN_POINT('',(12.418245427703,-1.97,-1.));
#1269 = DIRECTION('',(0.,0.,1.));
#1270 = DIRECTION('',(1.,0.,0.));
#1271 = ORIENTED_EDGE('',*,*,#1272,.F.);
#1272 = EDGE_CURVE('',#498,#1264,#1273,.T.);
#1273 = LINE('',#1274,#1275);
#1274 = CARTESIAN_POINT('',(11.247738509753,-1.03196292449,1.));
#1275 = VECTOR('',#1276,1.);
#1276 = DIRECTION('',(-0.,-0.,-1.));
#1277 = CYLINDRICAL_SURFACE('',#1278,1.5);
#1278 = AXIS2_PLACEMENT_3D('',#1279,#1280,#1281);
#1279 = CARTESIAN_POINT('',(12.418245427703,-1.97,1.));
#1280 = DIRECTION('',(0.,0.,1.));
#1281 = DIRECTION('',(1.,0.,0.));
#1282 = ADVANCED_FACE('',(#1283),#1294,.T.);
#1283 = FACE_BOUND('',#1284,.T.);
#1284 = EDGE_LOOP('',(#1285,#1286,#1287,#1293));
#1285 = ORIENTED_EDGE('',*,*,#497,.F.);
#1286 = ORIENTED_EDGE('',*,*,#1206,.T.);
#1287 = ORIENTED_EDGE('',*,*,#1288,.T.);
#1288 = EDGE_CURVE('',#1207,#1264,#1289,.T.);
#1289 = LINE('',#1290,#1291);
#1290 = CARTESIAN_POINT('',(-17.04476099488,-36.3360753747,-1.));
#1291 = VECTOR('',#1292,1.);
#1292 = DIRECTION('',(0.62535805034,0.7803379453,0.));
#1293 = ORIENTED_EDGE('',*,*,#1272,.F.);
#1294 = PLANE('',#1295);
#1295 = AXIS2_PLACEMENT_3D('',#1296,#1297,#1298);
#1296 = CARTESIAN_POINT('',(-28.75226149024,-50.94499721745,1.));
#1297 = DIRECTION('',(0.7803379453,-0.62535805034,0.));
#1298 = DIRECTION('',(0.62535805034,0.7803379453,0.));
#1299 = ADVANCED_FACE('',(#1300),#1319,.F.);
#1300 = FACE_BOUND('',#1301,.F.);
#1301 = EDGE_LOOP('',(#1302,#1303,#1311,#1318));
#1302 = ORIENTED_EDGE('',*,*,#522,.F.);
#1303 = ORIENTED_EDGE('',*,*,#1304,.T.);
#1304 = EDGE_CURVE('',#523,#1305,#1307,.T.);
#1305 = VERTEX_POINT('',#1306);
#1306 = CARTESIAN_POINT('',(14.55,8.03,-1.));
#1307 = LINE('',#1308,#1309);
#1308 = CARTESIAN_POINT('',(14.55,8.03,155.39920445388));
#1309 = VECTOR('',#1310,1.);
#1310 = DIRECTION('',(-0.,-0.,-1.));
#1311 = ORIENTED_EDGE('',*,*,#1312,.T.);
#1312 = EDGE_CURVE('',#1305,#1305,#1313,.T.);
#1313 = CIRCLE('',#1314,1.55);
#1314 = AXIS2_PLACEMENT_3D('',#1315,#1316,#1317);
#1315 = CARTESIAN_POINT('',(13.,8.03,-1.));
#1316 = DIRECTION('',(0.,0.,1.));
#1317 = DIRECTION('',(1.,0.,0.));
#1318 = ORIENTED_EDGE('',*,*,#1304,.F.);
#1319 = CYLINDRICAL_SURFACE('',#1320,1.55);
#1320 = AXIS2_PLACEMENT_3D('',#1321,#1322,#1323);
#1321 = CARTESIAN_POINT('',(13.,8.03,155.39920445388));
#1322 = DIRECTION('',(0.,0.,1.));
#1323 = DIRECTION('',(1.,0.,0.));
#1324 = ADVANCED_FACE('',(#1325),#1344,.F.);
#1325 = FACE_BOUND('',#1326,.F.);
#1326 = EDGE_LOOP('',(#1327,#1328,#1336,#1343));
#1327 = ORIENTED_EDGE('',*,*,#533,.F.);
#1328 = ORIENTED_EDGE('',*,*,#1329,.T.);
#1329 = EDGE_CURVE('',#534,#1330,#1332,.T.);
#1330 = VERTEX_POINT('',#1331);
#1331 = CARTESIAN_POINT('',(63.433034292965,8.03,-1.));
#1332 = LINE('',#1333,#1334);
#1333 = CARTESIAN_POINT('',(63.433034292965,8.03,155.39920445388));
#1334 = VECTOR('',#1335,1.);
#1335 = DIRECTION('',(-0.,-0.,-1.));
#1336 = ORIENTED_EDGE('',*,*,#1337,.T.);
#1337 = EDGE_CURVE('',#1330,#1330,#1338,.T.);
#1338 = CIRCLE('',#1339,1.55);
#1339 = AXIS2_PLACEMENT_3D('',#1340,#1341,#1342);
#1340 = CARTESIAN_POINT('',(61.883034292965,8.03,-1.));
#1341 = DIRECTION('',(0.,0.,1.));
#1342 = DIRECTION('',(1.,0.,0.));
#1343 = ORIENTED_EDGE('',*,*,#1329,.F.);
#1344 = CYLINDRICAL_SURFACE('',#1345,1.55);
#1345 = AXIS2_PLACEMENT_3D('',#1346,#1347,#1348);
#1346 = CARTESIAN_POINT('',(61.883034292965,8.03,155.39920445388));
#1347 = DIRECTION('',(0.,0.,1.));
#1348 = DIRECTION('',(1.,0.,0.));
#1349 = ADVANCED_FACE('',(#1350,#1360,#1363,#1366,#1369,#1375,#1381,
    #1387,#1390),#1393,.F.);
#1350 = FACE_BOUND('',#1351,.F.);
#1351 = EDGE_LOOP('',(#1352,#1353,#1354,#1355,#1356,#1357,#1358,#1359));
#1352 = ORIENTED_EDGE('',*,*,#575,.T.);
#1353 = ORIENTED_EDGE('',*,*,#624,.T.);
#1354 = ORIENTED_EDGE('',*,*,#673,.T.);
#1355 = ORIENTED_EDGE('',*,*,#722,.T.);
#1356 = ORIENTED_EDGE('',*,*,#747,.T.);
#1357 = ORIENTED_EDGE('',*,*,#704,.T.);
#1358 = ORIENTED_EDGE('',*,*,#656,.T.);
#1359 = ORIENTED_EDGE('',*,*,#606,.T.);
#1360 = FACE_BOUND('',#1361,.F.);
#1361 = EDGE_LOOP('',(#1362));
#1362 = ORIENTED_EDGE('',*,*,#943,.F.);
#1363 = FACE_BOUND('',#1364,.F.);
#1364 = EDGE_LOOP('',(#1365));
#1365 = ORIENTED_EDGE('',*,*,#968,.F.);
#1366 = FACE_BOUND('',#1367,.F.);
#1367 = EDGE_LOOP('',(#1368));
#1368 = ORIENTED_EDGE('',*,*,#993,.F.);
#1369 = FACE_BOUND('',#1370,.F.);
#1370 = EDGE_LOOP('',(#1371,#1372,#1373,#1374));
#1371 = ORIENTED_EDGE('',*,*,#1018,.F.);
#1372 = ORIENTED_EDGE('',*,*,#1092,.T.);
#1373 = ORIENTED_EDGE('',*,*,#1067,.F.);
#1374 = ORIENTED_EDGE('',*,*,#1043,.F.);
#1375 = FACE_BOUND('',#1376,.F.);
#1376 = EDGE_LOOP('',(#1377,#1378,#1379,#1380));
#1377 = ORIENTED_EDGE('',*,*,#1116,.F.);
#1378 = ORIENTED_EDGE('',*,*,#1190,.T.);
#1379 = ORIENTED_EDGE('',*,*,#1165,.F.);
#1380 = ORIENTED_EDGE('',*,*,#1141,.F.);
#1381 = FACE_BOUND('',#1382,.F.);
#1382 = EDGE_LOOP('',(#1383,#1384,#1385,#1386));
#1383 = ORIENTED_EDGE('',*,*,#1214,.F.);
#1384 = ORIENTED_EDGE('',*,*,#1288,.T.);
#1385 = ORIENTED_EDGE('',*,*,#1263,.F.);
#1386 = ORIENTED_EDGE('',*,*,#1239,.F.);
#1387 = FACE_BOUND('',#1388,.F.);
#1388 = EDGE_LOOP('',(#1389));
#1389 = ORIENTED_EDGE('',*,*,#1312,.F.);
#1390 = FACE_BOUND('',#1391,.F.);
#1391 = EDGE_LOOP('',(#1392));
#1392 = ORIENTED_EDGE('',*,*,#1337,.F.);
#1393 = PLANE('',#1394);
#1394 = AXIS2_PLACEMENT_3D('',#1395,#1396,#1397);
#1395 = CARTESIAN_POINT('',(1.150639860334,-26.92651714648,-1.));
#1396 = DIRECTION('',(0.,0.,1.));
#1397 = DIRECTION('',(1.,0.,0.));
#1398 = ( GEOMETRIC_REPRESENTATION_CONTEXT(3) 
GLOBAL_UNCERTAINTY_ASSIGNED_CONTEXT((#1402)) 
GLOBAL_UNIT_ASSIGNED_CONTEXT((#1399,#1400,#1401)) REPRESENTATION_CONTEXT
('Context #1','3D Context with UNIT and UNCERTAINTY') );
#1399 = ( LENGTH_UNIT() NAMED_UNIT(*) SI_UNIT(.MILLI.,.METRE.) );
#1400 = ( NAMED_UNIT(*) PLANE_ANGLE_UNIT() SI_UNIT($,.RADIAN.) );
#1401 = ( NAMED_UNIT(*) SI_UNIT($,.STERADIAN.) SOLID_ANGLE_UNIT() );
#1402 = UNCERTAINTY_MEASURE_WITH_UNIT(LENGTH_MEASURE(1.E-05),#1399,
  'distance_accuracy_value','confusion accuracy');
#1403 = PRODUCT_RELATED_PRODUCT_CATEGORY('part',$,(#7));
#1404 = MECHANICAL_DESIGN_GEOMETRIC_PRESENTATION_REPRESENTATION('',(
    #1405),#1398);
#1405 = STYLED_ITEM('color',(#1406),#15);
#1406 = PRESENTATION_STYLE_ASSIGNMENT((#1407,#1413));
#1407 = SURFACE_STYLE_USAGE(.BOTH.,#1408);
#1408 = SURFACE_SIDE_STYLE('',(#1409));
#1409 = SURFACE_STYLE_FILL_AREA(#1410);
#1410 = FILL_AREA_STYLE('',(#1411));
#1411 = FILL_AREA_STYLE_COLOUR('',#1412);
#1412 = COLOUR_RGB('',0.447058818107,0.474509808674,0.501960817233);
#1413 = CURVE_STYLE('',#1414,POSITIVE_LENGTH_MEASURE(0.1),#1415);
#1414 = DRAUGHTING_PRE_DEFINED_CURVE_FONT('continuous');
#1415 = COLOUR_RGB('',9.803921802644E-02,9.803921802644E-02,
  9.803921802644E-02);
ENDSEC;
END-ISO-10303-21;
